<?xml version="1.0" encoding="UTF-8" standalone="no"?>
<svg
   xmlns:dc="http://purl.org/dc/elements/1.1/"
   xmlns:cc="http://creativecommons.org/ns#"
   xmlns:rdf="http://www.w3.org/1999/02/22-rdf-syntax-ns#"
   xmlns:svg="http://www.w3.org/2000/svg"
   xmlns="http://www.w3.org/2000/svg"
   xmlns:sodipodi="http://sodipodi.sourceforge.net/DTD/sodipodi-0.dtd"
   xmlns:inkscape="http://www.inkscape.org/namespaces/inkscape"
   viewBox="0 0 50 50"
   enable-background="new 0 0 50 50"
   id="svg3394"
   version="1.1"
   inkscape:version="0.91 r13725"
   sodipodi:docname="icon-linkedin.svg">
  <metadata
     id="metadata3402">
    <rdf:RDF>
      <cc:Work
         rdf:about="">
        <dc:format>image/svg+xml</dc:format>
        <dc:type
           rdf:resource="http://purl.org/dc/dcmitype/StillImage" />
        <dc:title></dc:title>
      </cc:Work>
    </rdf:RDF>
  </metadata>
  <defs
     id="defs3400" />
  <sodipodi:namedview
     pagecolor="#ffffff"
     bordercolor="#666666"
     borderopacity="1"
     objecttolerance="10"
     gridtolerance="10"
     guidetolerance="10"
     inkscape:pageopacity="0"
     inkscape:pageshadow="2"
     inkscape:window-width="2495"
     inkscape:window-height="1311"
     id="namedview3398"
     showgrid="false"
     inkscape:zoom="5.87"
     inkscape:cx="-16.109458"
     inkscape:cy="32.689446"
     inkscape:window-x="65"
     inkscape:window-y="24"
     inkscape:window-maximized="1"
     inkscape:current-layer="svg3394" />
  <path
     d="m 45.991233,-0.09540033 -41.9824661,0 c -2.0802123,0 -3.59309397,1.54433233 -3.59309397,3.66778933 l 0,42.855222 c 0,1.930415 1.70199187,3.667789 3.59309397,3.667789 l 41.9824661,0 c 2.080212,0 3.593094,-1.544332 3.593094,-3.667789 l 0,-42.855222 c 0,-2.123457 -1.701992,-3.66778933 -3.593094,-3.66778933 z M 15.54449,42.373739 l -7.5644087,0 0,-23.164985 7.5644087,0 0,23.164985 z m -3.782205,-26.25365 c -2.4584323,0 -4.5386446,-2.123457 -4.5386446,-4.632997 0,-2.5095399 2.0802123,-4.6329969 4.5386446,-4.6329969 2.458433,0 4.538645,2.123457 4.538645,4.6329969 0,2.50954 -2.080212,4.632997 -4.538645,4.632997 z m 30.257634,26.25365 -7.564409,0 0,-11.582493 c 0,-3.088664 -0.75644,-6.177329 -3.782204,-6.177329 -3.025763,0 -3.782204,3.088665 -3.782204,6.177329 l 0,11.582493 -7.564408,0 0,-23.164985 7.564408,0 0,2.702581 0.37822,0 c 0.945552,-1.930415 3.403984,-3.474747 6.240637,-3.474747 6.997078,0 8.50996,4.632997 8.50996,10.424243 l 0,13.512908 z"
     id="path3396"
     inkscape:connector-curvature="0"
     style="fill:#828282" />
</svg>
