<svg xmlns="http://www.w3.org/2000/svg" width="1155.019" height="1840.742" viewBox="0 0 1155.0188 1840.7416"><path d="M124.168 1819.88c45.24-26.914 82.466-53.324 82.801-58.744.142-2.273.775-7.233 1.41-11.023 2.615-15.64 8.96-123.657 9.65-164.317.743-43.734.743-43.734-11.636-56.846-22.28-23.598-50.744-74.628-65.417-117.279-3.617-10.51-7.958-20.83-9.647-22.931-4.539-5.644-30.129-99.169-36.395-133.016-2.983-16.107-6.903-37.036-8.712-46.51-1.808-9.475-4.074-25.754-5.034-36.176-.96-10.421-3.22-29.026-5.024-41.342-1.803-12.317-4.187-30.146-5.298-39.62-4.066-34.68-6.367-45.053-12.814-57.773-3.62-7.142-6.266-17.995-5.88-24.117.385-6.122-1.732-15.782-4.704-21.467-12.436-23.79-19.906-54.64-19.95-82.393-.035-18.058-2.453-35.535-6.891-49.694-8.614-27.48-8.663-42.103-.18-52.89 6.325-8.039 6.569-13.079 4.739-97.791-3.828-177.154-1.68-210.668 16.101-251.242 1.661-3.79 4.876-13.091 7.144-20.67 2.268-7.58 7.802-22.65 12.298-33.488 4.496-10.838 8.175-25.27 8.175-32.072 0-6.8 1.388-11.507 3.084-10.459 1.696 1.048 4.022-.537 5.168-3.524 2.857-7.445 2.667-8.311-1.822-8.311-4.082 0-20.2 17.109-20.207 21.45 0 1.375-3.248 7.576-7.213 13.78-7.21 11.28-7.21 11.28-5.311.945 1.899-10.336 1.899-10.336-3.136.861-5.899 13.117-8.2 14.254-6.977 3.445 1.322-11.677 15.475-37.463 25.954-47.285 7.393-6.93 9.02-11.154 8.002-20.758-.704-6.632-1.472-14.183-1.708-16.78-.234-2.598-5.595-6.882-11.912-9.521-12.925-5.4-15.637-9.908-3.732-6.203 7.752 2.413 7.752 2.413.861-5.737-4.713-5.575-5.042-6.723-1.042-3.631 3.8 2.935 7.782 3.437 11.366 1.431 4.689-2.624 4.199-3.688-3.265-7.088-4.83-2.201-8.954-5.973-9.165-8.382-4.576-52.27-8.045-67.848-16.239-72.912-4.043-2.498-2.451-41.144 2.324-56.424 2.053-6.57 2.177-10.433.296-9.271-1.773 1.096-3.224 5.002-3.224 8.68 0 3.677-1.37 6.687-3.043 6.687-1.674 0-3.938 3.42-5.031 7.6-1.093 4.181-2.82 6.77-3.837 5.753-13.527-13.527 17.568-43.008 33.758-32.006 19.289 13.107 16.106 18.949-5.482 10.062-4.587-1.889-6.029-.795-6.029 4.573 0 3.881-1.55 8.014-3.445 9.185-1.895 1.171-3.375 5.526-3.29 9.678.134 6.51.812 6.127 4.929-2.787 4.616-9.996 4.85-10.082 7.127-2.623 1.294 4.242 3.99 6.701 5.992 5.464 2.3-1.422 2.79-.037 1.331 3.766-1.27 3.308-2.488 10.926-2.708 16.93-.22 6.003-1.109 8.202-1.975 4.886-2.173-8.314-11.406-7.616-11.406.861 0 3.79 1.744 6.503 3.876 6.03 2.132-.474 4.658 1.292 5.614 3.924 1.057 2.908.228 3.852-2.113 2.405-2.453-1.516-3.107-.438-1.801 2.966 1.128 2.94 3.602 5.346 5.497 5.346s2.62 2.15 1.611 4.778c-1.323 3.448.252 4.287 5.66 3.015 7.386-1.738 7.395-1.686.65 3.524-6.52 5.037-6.56 5.6-.853 11.907 3.295 3.641 5.057 7.554 3.915 8.695-1.14 1.141-.996 3.822.324 5.956 1.635 2.645 4.007 1.896 7.452-2.355 3.574-4.41 4.636-4.722 3.627-1.067-.784 2.842 2.22 9.55 6.675 14.907 9.945 11.957 13.73 25.627 8.536 30.822-2.879 2.88-3.882 2.21-3.882-2.592 0-13.933-8.207-29.816-14.55-28.157-3.372.882-5.262.198-4.2-1.52 1.062-1.719 1.19-3.125.286-3.125-.904 0-4.097-.94-7.094-2.09-3.576-1.373-5.45-.189-5.45 3.444 0 3.045 1.55 5.537 3.446 5.537 1.894 0 3.445 1.642 3.445 3.648 0 2.007-1.938 2.516-4.307 1.13-2.368-1.384-1.386.813 2.184 4.884 5.583 6.368 12.459 7.466 12.459 1.99 0-.948-1.444-.831-3.208.259-1.764 1.09-3.989.717-4.945-.83-.955-1.546 1.425-4.787 5.29-7.2 3.866-2.415 6.077-2.85 4.914-.968-1.163 1.882.224 5.761 3.085 8.621 5.492 5.492 7.119 10.73 2.433 7.834-3.108-1.92-2.46 17.896.688 21.044 1.11 1.11.293 4.1-1.819 6.643-3.005 3.62-2.251 4.623 3.475 4.623 4.022 0 7.313 1.55 7.313 3.445 0 1.895-2.771 3.446-6.158 3.446-4.458 0-6.39 3.049-7 11.046-.462 6.075-3.505 14.046-6.761 17.714-5.756 6.483-5.681 6.535 2.693 1.873 4.737-2.637 9.525-6.03 10.64-7.541 3.31-4.487 9.276 5.473 9.22 15.393-.033 6.043-1.563 8.62-4.457 7.51-2.951-1.132-5.584 3.795-7.97 14.916-2.19 10.205-2.318 17.049-.331 17.754 5.774 2.051 3.413 7.465-3.256 7.465-4.164 0-7.071 3.048-8.115 8.509-.97 5.07-.255 7.66 1.768 6.41 1.867-1.153 2.612.057 1.655 2.689-.956 2.632-3.26 4.473-5.119 4.09-2.872-.591-10.918 19.342-11.072 27.433-.034 1.44-2.236 6.867-4.907 12.058-2.672 5.191-6.537 20.29-8.59 33.555-2.051 13.264-4.777 29.332-6.056 35.707-2.19 10.911-1.862 11.443 5.594 9.077 6.817-2.163 7.53-1.618 5.114 3.913-2.704 6.188-3.003 10.09-2.214 28.82.2 4.737-.307 18.69-1.126 31.007-.818 12.317-1.874 38.673-2.346 58.57-.556 23.413-1.724 32.528-3.311 25.838-1.35-5.684-2.394 16.796-2.322 49.956.107 49.1-.9 62.21-5.43 70.627-5.74 10.668-7.577 26.151-3.019 25.431 13.365-2.11 14.645.147 14.4 25.386-.175 18.036-1.122 23.063-3.409 18.088-2.344-5.1-2.762-3.31-1.61 6.89.856 7.58 1.769 19.207 2.03 25.84.407 10.387.795 10.908 2.794 3.761 1.68-6.007 3.469-.42 6.481 20.246 2.288 15.698 3.31 29.916 2.273 31.596-1.038 1.68 1.317 11.62 5.234 22.087 3.916 10.469 7.12 22.937 7.12 27.707s2.957 15.176 6.57 23.126c6.327 13.92 19.435 93.86 22.99 140.204.944 12.316 3.11 27.045 4.812 32.73 1.702 5.684 4.726 21.375 6.718 34.869 1.993 13.493 9.28 43.725 16.193 67.181 6.914 23.457 13.337 46.264 14.275 50.683.937 4.42 3.955 8.899 6.705 9.954 2.75 1.056 3.544 2.866 1.764 4.024-3.504 2.278 18.314 59.947 23.364 61.757 1.664.596 2.302 2.966 1.42 5.266-.883 2.301.87 7.24 3.894 10.975 3.024 3.735 4.37 4.614 2.989 1.953-1.665-3.21-1.152-4 1.523-2.346 2.218 1.37 3.175 3.883 2.125 5.582-2.237 3.618 11.061 31.03 14.776 30.459 7.09-1.09 11.285.846 9.187 4.24-1.643 2.659-3.254 2.398-5.318-.86-1.63-2.571-2.986-3.082-3.015-1.135-.069 4.625 9.25 17.974 21.582 30.912 11.124 11.673 17.366 24.885 14.853 31.436-.931 2.424-1.957 19.805-2.281 38.625-3.018 175.166-5.201 180.448-94.86 229.555-46.775 25.618-49.474 24.192-4.666-2.465zm945.574 6.941c-40.776-28.78-115.415-112.01-115.415-128.697 0-1.015-4.089-10.196-9.086-20.401-8.77-17.911.138-215.685 12.414-275.577 4.725-23.053 4.178 1.756-1.557 70.627-18.117 217.573-7.905 252.953 96.46 334.187 42.832 33.338 53.113 45.221 17.184 19.861zm-692.693-545.149c-3.678-2.782-10.176-5.107-14.44-5.167-4.263-.06-7.751-1.47-7.751-3.134 0-3.33 17.723-2.65 23.469.901 1.99 1.23 4.39.984 5.335-.545.946-1.53 7.642-3.152 14.88-3.604 7.24-.452 21.152-4.1 30.917-8.107 11.597-4.758 19.961-6.305 24.117-4.46 5.7 2.531 5.496 2.974-1.949 4.255-6.416 1.103-7.201 2.131-3.445 4.509 4.096 2.593 4.108 3.088.076 3.132-2.634.028-6.977 2.766-9.653 6.082-4.484 5.556-4.698 5.422-2.731-1.723 2.633-9.57-2.115-10.004-10.316-.942-3.39 3.745-7.506 5.979-9.148 4.964-1.641-1.014-3.008.185-3.037 2.665-.045 3.677-.587 3.668-2.944-.05-2.357-3.717-3.866-3.588-8.15.696-6.184 6.184-9.953 3.883-6.92-4.224 1.848-4.937 1.364-5.07-3.644-.996-3.176 2.584-4.926 6.072-3.887 7.752 2.946 4.767-3.384 3.59-10.78-2.003zm154.732-7.293c.278-3.183-2.1-6.205-5.285-6.714-4.103-.656-5.17.732-3.661 4.763 1.881 5.027 1.425 5.116-3.917.768-5.689-4.631-5.574-5.184 1.939-9.352 7.453-4.136 7.526-4.466 1.094-4.964-16.287-1.261-48.714 1.255-54.262 4.21-3.904 2.08-6.03 1.97-6.03-.308 0-15.392 69.084-16.685 93.258-1.745 2.33 1.44 16.45 3.093 31.375 3.673 14.925.58 29.034 2.238 31.354 3.686 6.49 4.05 16.275 4.877 16.275 1.374 0-1.725-1.938-3.918-4.306-4.874-3.373-1.361-3.35-1.797.108-2.01 4.3-.265 9.883 8.973 7.103 11.753-3.827 3.827-24.87 4.97-28.964 1.574-2.555-2.121-5.965-3.04-7.578-2.044-1.613.996-12.146.549-23.406-.995-14.167-1.943-21.351-1.613-23.32 1.068-2.077 2.827-3.311 2.735-4.564-.342-1.3-3.188-3.67-2.938-9.718 1.025-7.283 4.772-7.955 4.723-7.495-.546zm-274.635-44.494c1.09-2.843 3.406-5.168 5.145-5.168 1.739 0 4.67-3.97 6.515-8.82 1.844-4.852 4.66-8.013 6.257-7.026 1.598.987 6.383-2.911 10.635-8.662 4.734-6.404 9.691-9.705 12.787-8.517 2.78 1.067 8.899-.578 13.596-3.656 4.697-3.077 9.654-4.44 11.016-3.03 2.967 3.075-11.226 13.173-20.504 14.589-9.232 1.409-24.002 12.958-32.143 25.133-7.088 10.6-16.844 14.382-13.304 5.157zm132.164-35.824c0-1.666-5.426-4.048-12.058-5.292-6.632-1.244-12.058-3.742-12.058-5.551 0-4.243.517-4.188 14.05 1.502 10.475 4.405 12.402 4.156 23.866-3.08 7.8-4.924 18.842-8.176 29.481-8.682 23.508-1.118 25.624-.668 25.624 5.452 0 3.415-1.566 4.403-4.3 2.713-10.776-6.66-31.972-4.055-48.24 5.927-9 5.523-16.365 8.678-16.365 7.011zm583.656-39.971c2.926-53.284 8.52-81.503 16.573-83.609 3.33-.87 5.204-2.957 4.166-4.636-1.038-1.68.438-3.054 3.28-3.054 6.898 0 10.175 5.777 4.735 8.346-5.562 2.626 32.92-.762 40.147-3.535 2.993-1.148 4.594-3.458 3.56-5.132-1.035-1.675.24-2.23 2.832-1.236 5.232 2.008 27.571-14.204 39.553-28.703 4.73-5.723 7.741-7.428 7.752-4.387.069 19.759-58.064 53.702-87.906 51.329-19.177-1.526-20.45 1.665-26.347 66.004-5.24 57.178-11.358 63.493-8.345 8.613zm-20.458-16.365c8.078-52.983 12.593-74.985 17.199-83.817 2.887-5.536 5.258-12.003 5.27-14.372 0-2.369 1.463-4.307 3.226-4.307 1.967 0 1.984 4.257.045 11.021-2.117 7.382-1.942 11.774.53 13.302 2.34 1.446 1.692 3.047-1.767 4.374-3.001 1.152-5.433 4.08-5.404 6.509.038 3.137 1.128 2.92 3.77-.753 3.092-4.298 3.373-4.106 1.67 1.143-1.126 3.47-2.157 8.897-2.29 12.058-.196 4.66-.86 4.443-3.508-1.143-2.452-5.172-2.846-3.454-1.578 6.89 1.17 9.556.678 12.197-1.607 8.613-2.654-4.163-3.305-3.66-3.348 2.584-.035 4.264 1.885 7.776 4.254 7.805 2.871.035 2.584 1.166-.861 3.392-2.843 1.837-3.541 3.364-1.554 3.393 2.183.03 2.931 5.17 1.888 12.972-1.726 12.92-1.726 12.92-4.022.861-2.26-11.872-2.303-11.899-2.796-1.722-.719 14.83-4.127 25.84-8.002 25.84-1.99 0-2.442-5.935-1.114-14.643zm-629.518-89.2c13.797-13.899-13.284-62.244-29.357-52.406-5.274 3.229-7.206 2.763-10.515-2.537-5.829-9.333-5.313-10.03 7.419-10.03 32.088 0 60.654 56.944 33.709 67.196-4.458 1.696-4.708 1.254-1.256-2.223zm61.282-31.563c-20.226-30.869 4.758-57.607 40.964-43.841 12.497 4.751 48.052 40.004 45.125 44.74-1.522 2.462-9.458-3.105-21.605-15.156-19.553-19.397-30.985-24.319-51.15-22.02-11.905 1.359-17.535 28.42-6.773 32.55 5.845 2.243 7.461 11.659 2.002 11.659-1.851 0-5.705-3.57-8.563-7.932zm714.754-.908c0-1.072 1.605-4.948 3.567-8.613 3.682-6.88-1.193-9.847-5.29-3.219-6.184 10.008-26.652-4.758-23.469-16.931 1.023-3.91 3.315-6.208 5.094-5.108 1.78 1.1 2.588 3.795 1.797 5.99-.792 2.195-.034 6.746 1.712 10.114 7.013 13.627 27.224-7.96 35.57-37.991 1.185-4.264 3.458-7.752 5.051-7.752s.528 8.14-2.366 18.088c-7.604 26.137-21.666 55.617-21.666 45.422zm26.506-75.568c1.157-5.685 5.058-20.413 8.67-32.73 13.984-47.698 17.746-84.942 9.573-94.79-2.186-2.634-3.252-7.578-2.368-10.985 1.232-4.747 1.701-4.336 2.007 1.76.22 4.376 1.803 7.089 3.517 6.029 5.358-3.311-.347-30.129-9.688-45.539-8.902-14.688-16.903-20.382-12.542-8.926 1.84 4.834 1.435 5.176-2.043 1.723-13.006-12.91-55.45 21.389-64.493 52.117-5.275 17.924-11.662 22.094-7.242 4.729 5.408-21.247 7.575-26.7 10.607-26.7 1.675 0 3.044-3.101 3.044-6.891 0-4.535 2.297-6.89 6.72-6.89 3.695 0 7.958-2.195 9.474-4.878 11.77-20.837 38.872-30.621 51.627-18.639 9.771 9.18 10.298 4.7 1.083-9.213-9.934-15-8.448-18.952 1.872-4.976 28.606 38.74 25.632 132.237-6.46 203.076-5.232 11.552-5.373 11.624-3.358 1.723zm-85.649-2.297c-4.916-4.916-6.316-11.637-6.316-30.313 0-21.437-1.047-25.204-9.818-35.313-10.976-12.653-17.62-31.946-10.142-29.456 2.451.816 5.01 4.456 5.689 8.089 2.795 14.988 14.27 18.75 14.27 4.679 0-3.846 2.354-6.688 5.537-6.688 3.697 0 4.822-1.861 3.387-5.602-1.894-4.935-1.014-4.87 7.383.539 11.438 7.368 27.05 22.29 23.322 22.29-8.005 0-29.295-8.529-29.314-11.743 0-2.068-2.317.641-5.124 6.022-3.62 6.943-4.115 11.628-1.7 16.139 1.87 3.495 3.4 14.107 3.4 23.583 0 24.988 4.961 36.075 15.261 34.106 7.005-1.339 7.702-.706 4.635 4.204-4.711 7.544-12.597 7.337-20.47-.536zm-781.491-18.338c0-4.335 19.002-49.24 24.071-56.883 6.856-10.337 17.2-32.411 20.894-44.585 2.466-8.125 2.694-7.871 2.91 3.243.21 10.789-2.642 17.454-22.839 53.4-7.304 13-18.146 38.352-18.146 42.431 0 2.244-1.55 4.08-3.445 4.08-1.895 0-3.445-.759-3.445-1.686zm867.013-18.124c-.875-1.421-6.546-22.738-12.603-47.372-13.555-55.13-14.982-58.158-25.117-53.25-7.286 3.528-7.265 3.385.516-3.393 4.884-4.255 7.304-9.212 6.068-12.432-1.195-3.116-.609-4.462 1.404-3.218 5.82 3.598 13.766 25.835 22.138 61.958 11.2 48.326 13.75 67.712 7.594 57.707zm-813.837-107.3c.712-11.324 3.71-24.953 6.66-30.286 12.208-22.066 21.91-70.628 13.011-65.128-1.621 1.002-2.307-1.62-1.524-5.826.853-4.584-2.09-12.38-7.348-19.46-4.824-6.496-8.03-12.552-7.123-13.459 2.432-2.432 18.051 15.313 20.63 23.438 1.222 3.85 3.322 7.001 4.666 7.001 5.781 0-2.29 50.788-11.07 69.656-5.04 10.836-10.135 26.77-11.319 35.408-3.204 23.372-8.075 22.377-6.583-1.344zm-136.33-19.205c-.888-.89-6.573-1.994-12.632-2.456-6.059-.461-11.016-2.645-11.016-4.852 0-2.208-2.499-6.087-5.554-8.622-3.054-2.535-6.831-7.764-8.394-11.619-2.252-5.555-2.887-4.305-3.06 6.02-.175 10.405 1.344 13.659 7.534 16.147 7.575 3.045 7.546 3.12-1.301 3.334-4.98.12-10.969-2.09-13.31-4.911-2.342-2.822-5.747-4.21-7.567-3.085-1.955 1.208-1.88-.569.183-4.345 1.92-3.514 4.362-10.544 5.427-15.623 3.975-18.96 19.152-25.107 19.152-7.758 0 10.04 16.755 28.692 27.66 30.792 4.249.818 8.436 2.199 9.305 3.068 2.198 2.198 30.856-30.511 33.444-38.173 3.49-10.333 18.98-19.945 23.774-14.753 3.047 3.301 3.038 3.796-.038 2.07-4.555-2.556-18.35 14.859-18.35 23.165 0 2.937-6.927 10.628-15.393 17.092-8.466 6.464-14.409 12.737-13.207 13.939s-1.69 2.186-6.427 2.186-9.34-.727-10.23-1.616zm439.734-26.174c-6.297-2.498-2.248-4.932 6.03-3.625 7.003 1.106 1.128-5.529-10.317-11.65-14.852-7.944-31.67-36.175-21.552-36.175 1.895 0 3.445 2.138 3.445 4.752 0 13.122 27.055 33.145 44.785 33.145 9.476 0 17.23-1.48 17.23-3.289 0-1.808 4.015-7.303 8.922-12.211 5.171-5.17 8.085-11.107 6.93-14.116-1.096-2.857-.572-4.316 1.165-3.242 5.056 3.124 7.591-10.186 3.827-20.088-1.896-4.987-2.324-9.187-.95-9.332 1.375-.145 5.206-.782 8.515-1.415 3.308-.634 6.888.26 7.955 1.986 1.067 1.726 5.724 3.138 10.35 3.138 5.32 0 8.409 1.974 8.409 5.371 0 2.955 1.388 4.514 3.084 3.465 1.697-1.048 3.974.41 5.06 3.242 1.086 2.832 4.295 5.148 7.13 5.148s6.716 2.918 8.624 6.483c2.463 4.602 7.41 6.538 17.042 6.67 12.322.17 27.964 6.357 27.964 11.06 0 3.31-13.567 3.037-15.638-.315-2.656-4.297-17.846-4.135-20.536.219-1.171 1.895-4.751 3.421-7.955 3.392-5.031-.045-5.121-.519-.658-3.47 5.589-3.697-7.101-16.908-16.399-17.072-2.387-.042-6.995-3.177-10.24-6.967-3.245-3.79-7.371-6.89-9.17-6.89-1.798 0-5.787-2.28-8.866-5.065-5.074-4.593-5.471-3.996-4.258 6.4.826 7.076-1.366 16.768-5.724 25.31-3.884 7.614-5.966 15.06-4.626 16.546 1.34 1.486.604 1.652-1.635.369-2.238-1.283-6.258.79-8.93 4.607-3.23 4.61-10.535 7.698-21.77 9.2-9.299 1.244-17.682 3.361-18.63 4.706-.947 1.345-4.823 1.216-8.613-.287zm419.681-16.295c3.901-4.31 5.123-10.319 4.028-19.81-1.219-10.56-.917-11.687 1.34-5.01 2.085 6.168 3.024.492 3.309-19.996.217-15.735 1.274-30.03 2.348-31.767 1.073-1.737-.565-8.025-3.642-13.974-3.076-5.949-4.009-9.837-2.073-8.64 6.355 3.927 2.107-50.286-4.308-54.977-5.937-4.341-7.802-10.263-2.128-6.756 3.98 2.459.755-8.014-4.58-14.88-2.516-3.239-2.21-5.398 1.051-7.414 3.663-2.263 3.09-4.765-2.805-12.26-4.074-5.18-7.407-11.054-7.407-13.056 0-2.001 2.276-.63 5.058 3.049 2.782 3.678 5.108 4.876 5.168 2.663.172-6.382-3.84-15.019-6.28-13.51-1.223.755-2.424-3.518-2.668-9.495-.893-21.8-4.114-31.358-12.939-38.394-10.232-8.16-11.785-15.54-3.268-15.54 3.158 0 4.722 1.02 3.475 2.268-2.633 2.632 3.932 11.514 8.51 11.514 1.707 0 .82-3.489-1.97-7.752-2.79-4.264-6.169-14.728-7.508-23.255-1.34-8.527-5.238-22.093-8.665-30.146-3.426-8.053-5.43-14.642-4.454-14.642s-1.982-5.039-6.574-11.197c-4.591-6.159-7.731-12.866-6.977-14.906.753-2.04-2.158-7.604-6.47-12.365-4.311-4.762-10.774-13.945-14.362-20.408-3.588-6.463-10.149-15.009-14.581-18.99-4.432-3.981-7.052-8.245-5.822-9.474 1.23-1.23.261-2.236-2.153-2.236-2.829 0-3.505 2.142-1.902 6.03 5.108 12.391 4.927 31.569-.28 29.571-2.68-1.029-4.033-3.232-3.005-4.896 2.448-3.961-2.003-27.599-4.871-25.869-1.213.732-2.683-9.71-3.266-23.205-.608-14.095-2.807-25.669-5.167-27.2-3.097-2.008-2.94-3.418.64-5.724 2.61-1.683 3.666-4.81 2.345-6.947-1.322-2.138-3.152-8.017-4.067-13.064-2.444-13.48-11.64-22.31-11.64-11.178 0 2.007 1.79 2.542 3.978 1.19 2.464-1.523 3.042-.945 1.52 1.52-3.85 6.229-8.262 4.691-10.83-3.775-3.615-11.92-16.04-24.25-19.232-19.085-1.443 2.334-3.42 3.447-4.394 2.472-.974-.974 2.282-6.355 7.236-11.958 4.953-5.603 8.108-7.652 7.01-4.554-1.235 3.49 1.584 9.062 7.409 14.642 9.703 9.296 17.98 12.555 11.23 4.421-4.435-5.344 4.806-5.829 13.124-.688 2.679 1.655.632-2.547-4.548-9.339-9.04-11.851-19.393-19.074-19.393-13.528 0 1.457 1.938 4.6 4.306 6.987 3.453 3.478 3.112 3.883-1.722 2.043-3.316-1.263-6.03-3.68-6.03-5.372 0-8.773-12.812-15.896-20.852-11.593-6.047 3.236-9.577 3.338-14.263.412-6.216-3.882-8.536-9.455-3.643-8.75 8.718 1.258 18.005-4.932 14.228-9.484-2.202-2.653-6.67-3.978-9.928-2.944-3.308 1.05-9.558-1.24-14.156-5.185-6.103-5.239-6.731-6.818-2.428-6.11 3.191.527 5.803-.593 5.803-2.488s-2.38-2.954-5.288-2.354c-3.039.628-4.322-.47-3.016-2.584 3.505-5.67-7.07-4.346-11.916 1.493-2.358 2.842-5.89 5.167-7.846 5.167-1.957 0-.604-3.306 3.006-7.348 6.534-7.316 6.525-7.337-2.05-4.74-13.369 4.05-13.162 4.886 5.168 20.959 10.646 9.335 15.081 15.131 11.612 15.175-7.966.1-34.946-26.963-32.704-32.806 1.953-5.088-2.92-9.482-11.577-10.442-2.876-.319-8.196-1.819-11.823-3.332-4.63-1.933-5.86-1.565-4.127 1.238 1.563 2.53.671 3.303-2.436 2.11-6.526-2.504-8.305 3.795-6.571 23.265 1.407 15.796 1.79 16.264 18.157 22.15 15.711 5.65 20.757 14.336 6.1 10.504-6.36-1.664-6.431-1.333-1.224 5.729 3.04 4.122 8.732 12.533 12.649 18.691 7.324 11.516 11.603 13.278 19.735 8.125 3.645-2.31 1.92-6.025-7.782-16.764-11.244-12.445-11.812-13.967-5.801-15.539 4.475-1.17 6.105-.288 4.964 2.687-.935 2.436-.045 5.453 1.98 6.704 2.024 1.25 3.68.54 3.68-1.578 0-2.118 1.576-2.878 3.501-1.688 1.926 1.19 2.77 3.35 1.875 4.797-.895 1.449.562 2.633 3.237 2.633 2.676 0 3.86-1.68 2.632-3.732-1.227-2.053.252-1.719 3.29.742 6.824 5.527 9.851 1.25 7.661-10.825-1.912-10.547 1.965-11.81 9.592-3.124 7.083 8.066 11.049 21.533 6.342 21.533-2.023 0-3.678-2.136-3.678-4.746 0-2.61-2.713-6.799-6.029-9.308-5.13-3.881-5.386-3.841-1.722.267 2.368 2.656 4.282 7.233 4.253 10.17-.04 4.24-.653 4.393-2.966.744-2.359-3.721-3.299-3.589-4.943.697-1.23 3.203-4.939 4.732-9.4 3.873-6.125-1.18-6.664-.571-3.194 3.61 4.965 5.983 8.219 6.707 4.724 1.051-1.536-2.484-.944-3.041 1.575-1.484 2.218 1.37 3.208 3.829 2.199 5.462-1.01 1.633-.235 3.958 1.722 5.168 1.957 1.209 2.609 3.734 1.448 5.612-1.212 1.961-4.068.761-6.714-2.822-3.69-4.997-5.473-5.38-8.972-1.929-8.039 7.93-25.544 5.304-30.011-4.5-2.397-5.262-5.609-7.822-7.976-6.359-2.523 1.56-3.021.925-1.37-1.745 2.594-4.198-6.837-17.542-12.398-17.542-1.6 0-2.911 4.651-2.911 10.336 0 6.473-1.77 10.335-4.737 10.335-2.793 0-4.737 3.641-4.737 8.872 0 4.88-1.943 10.693-4.317 12.92-3.437 3.223-3.842.91-1.991-11.353 1.279-8.47 3.426-16.221 4.771-17.226 5.88-4.388-.8-60.436-7.077-59.382-3.316.557-6.029-.606-6.029-2.584 0-1.978 2.16-3.596 4.8-3.596 2.64 0 5.7-2.349 6.802-5.22 1.101-2.87 6.012-6.744 10.911-8.606 4.9-1.863 8.015-4.834 6.923-6.601-1.092-1.768-.41-4.188 1.515-5.378 1.926-1.19 3.502.421 3.502 3.581 0 4.423 2.002 5.242 8.702 3.56 6.801-1.707 10.5-.095 16.933 7.379 4.527 5.26 9.525 8.26 11.108 6.67 3.066-3.084-15.15-19.456-21.68-19.485-2.136-.01-5.744-2.258-8.018-4.998-3.068-3.696-6.337-4.143-12.677-1.733-5.616 2.135-7.816 2.071-6.42-.187 1.167-1.889-.203-3.434-3.045-3.434-2.843 0-6.274 1.79-7.626 3.977-1.645 2.662-.858 3.07 2.38 1.237 2.662-1.507 2.101.161-1.246 3.707-4.748 5.031-7.4 5.625-12.076 2.705-4.32-2.697-7.667-2.685-11.99.042-4.436 2.798-7.787 2.668-12.856-.497-3.77-2.355-9.202-4.281-12.07-4.281-2.868 0-5.214-2.18-5.214-4.846 0-3.092 2.408-4.215 6.657-3.104 7.34 1.92 6.376-11.867-1.187-16.975-2.322-1.568-1.563-2.552 1.994-2.584 3.158-.028 6.434 1.885 7.28 4.253.846 2.369 2.681 3.247 4.078 1.952 4.332-4.017-1.6-9.703-10.124-9.703-5.631 0-9.465 3.036-12.505 9.905-4.321 9.762-17.926 13.966-22.299 6.89-1.024-1.658 1.924-3.014 6.552-3.014 5.517 0 9.035-2.373 10.216-6.89 2.285-8.737-16.12-9.863-25.308-1.549-5.567 5.039-5.534 6.107.59 18.782 3.572 7.392 6.494 15.065 6.494 17.052 0 1.986 1.642 3.611 3.648 3.611 2.007 0 2.56 1.762 1.23 3.914-2.494 4.036-14.963-9.103-15.158-15.972-.054-1.895-2.34-7.742-5.08-12.994-4.558-8.74-4.41-9.904 1.745-13.748 8.009-5.002 8.74-9.433 1.557-9.433-2.843 0-5.168-2.417-5.168-5.37 0-3.191 1.619-4.371 3.988-2.907 2.796 1.728 3.325-.014 1.77-5.826-1.22-4.56-2.24-9.545-2.266-11.078-.028-1.533-1.66-1.79-3.632-.571-1.972 1.219-2.582 5.38-1.354 9.248 1.383 4.358.904 6.21-1.261 4.873-2.077-1.283-2.798.499-1.78 4.394 1.334 5.1-.645 7.07-8.934 8.891-9.77 2.147-12.385 5.358-10.915 13.411.302 1.654-1.712 2.14-4.475 1.08-2.763-1.061-5.909.38-6.992 3.2-1.082 2.822-.613 4.293 1.042 3.27 6.108-3.775 24.824 5.969 29.746 15.485 8.607 16.646 5.605 19.362-6.442 5.827-10.819-12.156-25.914-19.629-16.335-8.087 2.73 3.29 2.844 5.222.356 6.051-2.01.67 1.026 6.343 6.747 12.606 10.582 11.586 13.647 9.713 6.392-3.906-3.625-6.803-3.46-7.071 1.722-2.797 3.153 2.6 5.732 6.775 5.732 9.277 0 2.643 2.793 4.01 6.67 3.263 6.627-1.276 14.187 16.424 9.162 21.45-1.128 1.127-2.16-.921-2.293-4.553-.232-6.31-.374-6.297-3.203.287-1.629 3.79-3.07 4.86-3.203 2.38-.133-2.48-1.775-3.562-3.648-2.405-1.953 1.207-2.53-.176-1.354-3.241 1.153-3.006.238-5.347-2.092-5.347-2.278 0-8.572-3.154-13.985-7.008-9.841-7.008-9.841-7.008-13.621 7.752-5.715 22.317-6.558 24.056-10.947 22.592-8.607-2.869-11.286-12.248-6.208-21.736 4.451-8.318 4.293-9.638-1.68-14.005-6.408-4.686-6.387-4.821.753-4.821 4.04 0 8.451-1.79 9.803-3.978 3.936-6.368 4.543-20.139.887-20.139-1.84 0-2.387-1.55-1.216-3.445 1.171-1.895-.233-3.445-3.12-3.445-2.888 0-7.045-3.489-9.238-7.752-3.292-6.397-3.192-7 .567-3.445 6.045 5.713 8.92 5.436 8.92-.862 0-2.842-2.454-5.29-5.455-5.44-3.55-.176-3.953-.877-1.153-2.008 3.315-1.337 3.117-3.428-.86-9.107-6.284-8.97-6.705-14.098-.858-10.445 2.37 1.48 6.516 3.024 9.217 3.432 2.7.408 6.314 3.25 8.03 6.317 2.481 4.435 4.14 4.728 8.111 1.432 3.766-3.125 7.083-3.19 13.503-.264 13.585 6.19 9.868 2.03-7.04-7.88-8.554-5.012-17.32-8.02-19.482-6.685-2.417 1.494-2.983.898-1.47-1.549 1.456-2.357.27-3.977-2.914-3.977-2.954 0-5.37-2.234-5.37-4.965 0-7.512 6.17-9.757 7.777-2.83.774 3.34 1.51-.13 1.633-7.709.226-13.78.226-13.78-7.176-.895-8.629 15.02-9.726 15.273-25.083 5.782-6.382-3.944-11.604-5.534-11.604-3.534 0 2.001 5.039 6.313 11.197 9.582 7.335 3.894 9.38 6.338 5.93 7.085-2.896.627-7.313 4.418-9.815 8.425-3.908 6.257-3.818 7.003.636 5.294 5.803-2.227 17.57 8.848 15.618 14.7-.717 2.152-5.969-.13-12.225-5.313-9.356-7.751-10.375-10.036-6.934-15.546 3.105-4.972 3.062-7.43-.187-10.68-3.33-3.33-4.22-3.026-4.22 1.44 0 6.444-10.812 5.665-20.161-1.454-3.123-2.378-4.529-2.966-3.124-1.308 1.405 1.658.762 5.173-1.428 7.812-3.162 3.81-2.446 5.2 3.475 6.748 4.102 1.073 7.457 3.411 7.457 5.197s1.55 2.289 3.445 1.117c1.895-1.17 3.446-.487 3.446 1.52 0 4.554-3.923 4.606-15.5.204-7.583-2.883-8.882-5.25-7.976-14.54.813-8.339-.413-11.397-4.935-12.31-4.487-.905-5.434.306-3.726 4.758 1.813 4.726.912 5.53-4.318 3.853-25.469-8.165-32.348-11.51-30.985-15.062 1.527-3.98-5.136-8.092-12.944-7.99-2.352.03-1.877 1.526 1.144 3.6 4.296 2.948 4.006 3.453-1.723 2.995-14.614-1.168-21.246.428-21.246 5.114 0 4.138 1.166 4.107 7.743-.203 7.086-4.643 7.929-4.485 9.942 1.858 2.353 7.413 21.369 18.702 26.334 15.633 1.643-1.015 2.064.56.936 3.5-2.636 6.868-4.642 6.736-10.418-.682-3.7-4.751-4.297-4.873-2.816-.574 1.1 3.194-.034 5.455-2.726 5.455-5.105 0-14.79-8.92-10.469-9.64 1.496-.25-2.64-1.413-9.193-2.585-8.858-1.584-12.525-4.339-14.299-10.743-1.312-4.737-2.54-6.89-2.729-4.784-.403 4.494-17.57 2.044-17.57-2.508 0-5.195-6.574-3.36-13.78 3.847-6.691 6.69-6.89 6.699-6.89.287 0-4.016 3.712-8.045 9.473-10.281 8.584-3.331 7.936-3.6-6.882-2.847-8.996.457-16.822-.565-17.39-2.271-.57-1.707-4.481-1.258-8.693.996s-9.159 3.171-10.993 2.038c-1.892-1.17-2.423.313-1.229 3.426 1.455 3.792 5.095 5.016 11.78 3.962 6.248-.984 10.331.186 11.528 3.305 1.224 3.191-.584 4.83-5.33 4.83-5.361 0-6.75 1.66-5.474 6.542 1.39 5.317.065 6.36-7.077 5.577-4.834-.531-13.5.386-19.258 2.038-5.758 1.651-11.744 1.727-13.303.169-2.599-2.6 20.854-11.654 27.315-10.546 8.117 1.393 7.423-1.24-2.535-9.62-6.068-5.106-13.551-9.68-16.629-10.165-3.077-.484-9.868-1.915-15.09-3.18-5.998-1.451-11.566-.578-15.12 2.373-3.096 2.568-9.676 4.352-14.623 3.965-8.39-.658-8.3-.48 1.34 2.644 7.086 2.296 12.666 2.134 17.748-.515 4.077-2.125 9.503-3.03 12.058-2.013 2.629 1.047 1.293 1.97-3.076 2.123-4.248.15-9.659 3.373-12.026 7.163-5.191 8.312-9.536 8.923-9.536 1.339 0-6.168-21.723-4.124-30.146 2.836-3.08 2.546-4.321 2.213-4.359-1.17-.045-3.966-.53-3.974-3.014-.054-1.97 3.108-3.72 3.447-5.226 1.012-1.245-2.014-4.585-2.772-7.422-1.683-4.396 1.687-4.252 2.726.971 7.021 5.74 4.72 5.746 4.92.1 3.146-3.865-1.215-6.029-.08-6.029 3.164 0 5.698-9.121 6.98-10.935 1.538-1.504-4.51-63.266-8.734-65.88-4.505-1.723 2.788 2.635 4.134 17.385 5.37 2.369.198 4.307 3.009 4.307 6.246 0 7.336-19.51 12-26.373 6.304-3.79-3.145-4.538-2.303-3.813 4.294 1.025 9.334-9.68 9.869-22.989 1.148-7.333-4.804-22.62-5.516-22.62-1.053 0 3.723 12.093 6.821 17.911 4.589 2.806-1.077 7.288.728 9.96 4.012 4.356 5.352 4.157 5.706-1.927 3.42-3.732-1.403-5.561-1.326-4.065.17 3.218 3.219 26.352 3.788 26.353.65 0-4.798 20.491.03 34.763 8.19 8.357 4.777 17.131 7.96 19.5 7.07 2.603-.975 4.307 1.288 4.307 5.722 0 5.406 4.37 9.36 16.616 15.034 9.695 4.492 16.014 9.51 15.169 12.044-.913 2.738-2.918 3.197-5.42 1.24-2.184-1.708-11.388-5.879-20.453-9.27-9.064-3.39-15.905-7.87-15.2-9.958 1.58-4.683-7.69-12.15-15.269-12.297-3.083-.06-7.62-2.535-10.08-5.5-2.838-3.42-7.397-4.654-12.48-3.379-4.404 1.106-8.007.762-8.007-.762 0-1.525-2.977-2.773-6.616-2.773-5.398 0-5.981 1.188-3.167 6.447 4.843 9.05.47 11.874-6.664 4.306-4.277-4.539-4.496-5.535-.779-3.55 2.842 1.519 3.973 1.447 2.514-.159-3.874-4.26-17.026-4.718-24.463-.85-4.373 2.275-5.734 2.203-4.233-.225 1.215-1.967-.535-5.176-3.891-7.13-4.17-2.427-4.59-3.585-1.325-3.656 3.038-.067 1.498-3.383-4.234-9.115-5.543-5.543-11.122-8.199-14.5-6.902-3.954 1.516-5.124.421-4.176-3.91.724-3.31 3.55-5.464 6.28-4.787 2.73.676 11.164 1.97 18.744 2.873 7.58.904 19.706 3.87 26.947 6.593 7.242 2.722 12.276 3.507 11.186 1.744-2.93-4.74 1.652-14.467 5.65-11.996 5.447 3.366-8.578-17.026-16.22-23.585-3.79-3.253-5.046-5.966-2.789-6.029 2.257-.063 5.127 1.541 6.378 3.565 1.25 2.025 4.405 2.863 7.009 1.864 2.604-1 9.893.338 16.198 2.972 7.168 2.995 13.32 3.642 16.42 1.726 2.727-1.686 8.309-2.224 12.404-1.196 5.676 1.425 7.32.39 6.92-4.352-.467-5.51 2.666-6.251 27.442-6.487 19.24-.182 30.546-1.953 36.225-5.674C321.256 3.32 377.976-3.654 408.247 2c8.797 1.643 27.126 3.879 40.732 4.968 40.722 3.26 51.908 4.982 55.463 8.537 5.192 5.192 8.922 4.017 6.585-2.074-1.152-3-5.367-6.9-9.367-8.664-23.362-10.306 46.4.134 71.721 10.732 27.315 11.433 27.315 11.433 36.807.063C622.538.77 630.03 3.21 629.085 21.716c-.68 13.301 24.687 25.347 32.18 15.28 4.322-5.807 10.576-3.852 10.951 3.423.301 5.834.79 6.26 1.976 1.723 2.358-9.026 17.636-7.458 28.167 2.892 19.833 19.489 44.074 31.924 58.47 29.993 11.853-1.59 15.092-.323 27.236 10.648 7.58 6.848 14.866 12.452 16.19 12.452 1.324 0 8.887 4.31 16.808 9.58 7.921 5.268 18.837 11.823 24.257 14.566 5.42 2.743 16.164 11.223 23.876 18.844 7.712 7.62 12.852 11.53 11.423 8.688-1.572-3.123-.66-2.804 2.303.808 2.696 3.287 6.16 4.837 7.695 3.445 1.536-1.392 1.823.17.639 3.472-1.534 4.275.57 7.41 7.311 10.896 15.81 8.175 52.856 50.89 48.187 55.558-.682.682-4.296-3.323-8.03-8.898-6.497-9.695-15.078-14.793-9.849-5.85 1.385 2.368-.85 1.352-4.965-2.257-9.43-8.272-9.858-1.882-.988 14.763 4.983 9.354 6.643 10.505 8.43 5.85 1.297-3.382.821-4.929-1.143-3.715-1.909 1.18-2.479-.233-1.316-3.263 1.68-4.376 3.269-3.796 8.772 3.2 3.696 4.7 7.875 8.187 9.285 7.75 3.398-1.054 24.601 23.15 24.601 28.082 0 2.118-1.55 3.852-3.445 3.852-1.895 0-3.058-1.71-2.584-3.8.474-2.09-3.403-4.31-8.615-4.933-9.477-1.134-9.477-1.134-7.725 18.442 1.856 20.741.19 20.93-3.232.363-3.745-22.526-10.427-26.507-11.528-6.869-.772 13.766.468 18.351 6.48 23.953 4.09 3.81 9.17 9.927 11.29 13.594 2.121 3.667 10.821 16.54 19.334 28.608 21.08 29.879 30.808 52.239 44.771 102.903 2.35 8.527 5.827 18.839 7.726 22.915 1.899 4.077 2.699 9.503 1.777 12.059-.922 2.555.449 9.874 3.045 16.263 2.596 6.39 4.72 14.807 4.72 18.705 0 7.547 5.517 26.615 11.433 39.513 2.542 5.543 2.468 8.94-.252 11.661-2.823 2.823-2.437 5.981 1.457 11.925 4.707 7.182 7.782 41.118 8.317 91.76.375 35.506-5.379 67.646-13.17 73.559-8.848 6.716-13.207 5.825-6.697-1.368zM263.09 420.273c-1.157-3.014-1.137-6.448.045-7.63 1.182-1.18 2.148-.338 2.148 1.872 0 4.607 12.458 5.503 15.184 1.092.995-1.61 15.427-3.917 32.071-5.126 44.858-3.257 58.942-5.395 83.502-12.671 12.227-3.623 22.976-5.842 23.886-4.932 6.567 6.566-29.276 17.016-76.333 22.254-29.614 3.297-37.393 4.328-67.158 8.897-8.222 1.262-11.807.253-13.345-3.756zM647.702 278.4c0-2.619 2.253-3.483 5.666-2.173 3.37 1.293 7.385-.177 9.91-3.63 3.363-4.6 6.094-5.1 13.16-2.414 5.957 2.264 9.639 2.223 11.09-.125 1.24-2.007 6.651-2.532 12.61-1.223 7.055 1.55 11.521.777 13.778-2.382 2.545-3.561 2.878-3.239 1.4 1.354-1.32 4.108-.106 6.03 3.81 6.03 4.596 0 4.886.862 1.446 4.302-6.092 6.092-72.87 6.331-72.87.261zm101.54-62.702c2.035-9.266 1.401-10.766-4.547-10.766-3.802 0-7.621-2.713-8.488-6.03-.938-3.59-1.857-1.849-2.271 4.307-.683 10.149-.743 10.18-3.279 1.723-5.133-17.118-7.03-31.333-3.924-29.414 1.723 1.065 3.762-.796 4.531-4.135 1.636-7.103 7.283 3.623 11.314 21.49 2.328 10.318 2.338 10.321 5.483 2.078 2.256-5.914 1.763-9.824-1.738-13.78-2.689-3.038-5.492-8.624-6.23-12.414-.834-4.277-3.603-6.502-7.301-5.866-3.277.564-5.75-.211-5.496-1.722 1.255-7.459-.745-14.806-4.031-14.806-2.19 0-2.758 3.134-1.404 7.752 2.274 7.751 2.274 7.751-3.52-.16-3.187-4.352-4.863-10.338-3.726-13.303 1.405-3.66.532-4.802-2.717-3.555-2.633 1.01-6.527.098-8.652-2.028-5.238-5.237-4.914-10.439.44-7.094 2.37 1.48 6.478 3.019 9.13 3.42 2.653.4 6.288 2.77 8.077 5.264 2.552 3.557 2.91 3.42 1.659-.632-3.692-11.964 3.849-22.23 11.345-15.445 6.362 5.757 7.255 5.79 13.126.476 7.631-6.906 10.926-7.234 10.926-1.087 0 2.538-3.876 6.38-8.613 8.539-6.187 2.819-8.759 6.856-9.13 14.334-.282 5.725-.672 11.812-.861 13.527-.19 1.715 4.055 8.055 9.432 14.09 10.11 11.346 11.178 47.921 1.574 53.857-2.231 1.379-2.628-1.705-1.11-8.62zm-56.053-37.652c.336-22.766-6.48-42.019-14.876-42.019-1.677 0-2.993-3.488-2.925-7.751.117-7.38.525-7.261 8.49 2.486 8.163 9.99 8.325 10.032 6.677 1.723-1.687-8.5-1.683-8.502 2.371-.764 2.234 4.263 5.376 7.752 6.98 7.752 1.606 0 2.92 1.501 2.92 3.337 0 1.835-2.385 2.422-5.3 1.303-4.088-1.569-3.617.816 2.064 10.444 7.743 13.124 12.461 16.674 8.568 6.448-1.772-4.654-1.36-5.1 1.811-1.954 5.83 5.784 1.204 16.926-4.917 11.846-5.706-4.735-10.295-.82-5.63 4.801 3.807 4.587.731 25.788-3.74 25.788-1.562 0-2.683-10.548-2.493-23.44zm-581.133-28.098c-1.123-1.818-.052-6.671 2.38-10.785 3.52-5.952 3.544-7.8.118-9.04-2.369-.859-4.307-4.187-4.307-7.397s-2.14-8.895-4.758-12.633c-4.047-5.78-4.047-7.459 0-11.238 3.916-3.655 4.758-3.467 4.758 1.065 0 3.029 1.23 4.748 2.731 3.82 1.502-.929 3.105 3.218 3.561 9.214.457 5.997 2.05 12.12 3.538 13.61 1.489 1.488 2.279-2.731 1.755-9.377-1.082-13.74 9.841-24.149 13.991-13.333 1.182 3.079 1.337 6.41.345 7.401-.992.992-1.804-.263-1.804-2.79 0-2.526-.996-3.597-2.214-2.38-1.217 1.218-.366 4.439 1.89 7.158 2.982 3.593 3.055 5.593.266 7.316-2.623 1.621-1.864 4.552 2.401 9.265 4.899 5.413 5.132 6.675 1.086 5.873-10.11-2.003-20.254 3.807-18.903 10.826 1.34 6.958-3.234 9.25-6.834 3.425zM0 139.137c0-3.855 1.805-10.382 4.012-14.505 6.042-11.29 7.343-29.928 2.098-30.053-2.547-.061-1.858-1.578 1.642-3.617 4.064-2.367 5.992-7.665 5.914-16.26-.114-12.748-.114-12.748-6.89-4.615C.35 77.8 0 77.86 0 71.242 0 62.247 27.884 37.6 41.035 34.97c35.28-7.057 70.891-6.613 79.548.992 8.613 7.566 8.613 7.566 0 5.498-20.28-4.867-29.67-5.676-22.394-1.93 5.427 2.795 4.074 3.128-6.368 1.569-8.925-1.332-12.519-.781-10.994 1.686 1.246 2.015 5.958 3.664 10.471 3.664 4.514 0 9.18 1.576 10.37 3.502 1.19 1.926 3.596 2.617 5.345 1.536 1.749-1.08 5.905-.257 9.236 1.83 6.461 4.05-8.082 3.266-26.673-1.438-8.182-2.07-8.225-2.007-.861 1.253 13.393 5.928 10.803 7.013-17.35 7.27-5.279.047-8.785 1.402-7.79 3.01 2.618 4.238-8.747 6.31-18.787 3.425-7.183-2.064-7.47-2.568-1.723-3.036 6.406-.523 6.345-.781-.861-3.678-4.263-1.714-7.752-3.796-7.752-4.627 0-2.375 15.032 1.915 19.81 5.654 2.44 1.91 4.307 2.005 4.307.22 0-4.288-22.901-14.39-26.784-11.816-1.712 1.135-2.826 10.904-2.477 21.709.445 13.752-.756 20.18-4 21.424-2.55.979-4.613 5.316-4.584 9.64.038 5.426.928 6.48 2.88 3.404 1.87-2.949 6.77-3.76 14.484-2.402 15.292 2.694 17.366 5.134 4.363 5.134-11.128 0-17.74 5.72-26.404 22.838C9.289 144.654 0 149.19 0 139.137zm190.335.412c-14.768-23.647-13.186-46.007 2.567-36.271 1.912 1.181 3.669.118 3.906-2.362.237-2.48 1.662 4.002 3.17 14.406 1.506 10.403 1.545 19.705.085 20.671-1.46.966-3.278 3.71-4.042 6.096-.922 2.88-2.835 2.026-5.686-2.54zm-93.449.255c-2.611-1.654-3.68-4.734-2.376-6.844 1.376-2.228-1.188-5.19-6.115-7.064-4.667-1.774-9.461-4.804-10.653-6.733-1.192-1.929-4.507-2.61-7.366-1.512-3.268 1.253-4.826.238-4.196-2.735.574-2.71-1.571-4.525-5.027-4.25-3.888.308-6.03-1.964-6.03-6.398 0-4.8-1.615-6.257-5.346-4.825-3.243 1.245-4.465.625-3.106-1.573 1.5-2.428-2.139-2.92-11.018-1.486-10.888 1.758-12.125 1.427-6.919-1.848 3.487-2.194 10.852-3.326 16.365-2.517 12.059 1.77 12.36.672 2.273-8.269-5.87-5.201-6.288-6.407-1.723-4.966 3.474 1.096 6.052.123 6.082-2.296.034-2.665 1.292-2.311 3.445.97 2.91 4.43 3.842 4.469 6.544.272 2.695-4.186 4.378-4.091 11.62.653 5.12 3.355 11.707 4.714 16.659 3.437 7.135-1.84 7.617-1.413 3.74 3.318-3.637 4.438-3.637 5.757 0 7.216 3.621 1.453 3.623 1.836 0 2.058-2.932.18-2.066 2.821 2.547 7.773 7.396 7.938 6.904 12.815-.77 7.632-2.504-1.691-1.594-.362 2.021 2.954 7.41 6.796 2.322 8.01-9.059 2.162-5.957-3.061-6.688-2.978-3.508.4 2.209 2.346 7.635 6.062 12.058 8.259s8.537 7.443 9.143 11.66c1.168 8.131-1.545 9.46-9.294 4.552zm400.802-25.286c-1.814-3.988-6.146-7.639-9.625-8.113-5.823-.795-5.89-.38-.847 5.192 13.046 14.416-20.695 7.54-46.227-9.42-13.644-9.063-14.162-11.793-2.788-14.681 5.254-1.334 10.06.14 14.151 4.341 5.924 6.082 6.548 6.096 14.211.316 10.206-7.698 7.966-13.263-8.773-21.803-15.231-7.77-18.205-6.237-3.882 2.001 9.475 5.45 9.475 5.45-.861 3.333-5.685-1.163-13.437-2.308-17.226-2.543-3.79-.236-7.97-2.029-9.287-3.985-1.318-1.957-3.359-2.595-4.534-1.42-1.176 1.176 1.234 5.28 5.354 9.119 7.493 6.98 7.493 6.98-5.32 5.964-7.047-.56-14.142-3.157-15.767-5.773-3.766-6.061 2.355-8.451 8.526-3.33 3.653 3.032 4.246 2.052 2.928-4.841-1.533-8.02 1.282-10.483 10.348-9.052 5.552.877 2.055-3.148-9.639-11.094-9.432-6.41-10.987-8.78-6.812-10.382 3.114-1.195 8.42.934 12.5 5.014 3.9 3.9 16.641 11.607 28.315 17.128 11.674 5.52 23.628 13.223 26.565 17.116 6.584 8.73 17.166 5.965 14.61-3.815-2.201-8.413 5.235-8.823 11.607-.64 3.887 4.992 4.363 5.069 2.766.446-1.557-4.506 8.075-13.02 10.338-9.14.304.52 3.289 5.315 6.636 10.66 5.55 8.862 5.616 10.431.743 17.868-4.983 7.605-4.899 8.119 1.246 7.656 3.624-.273 5.829-1.725 4.901-3.226-.928-1.502.73-2.73 3.684-2.73s5.395-1.938 5.424-4.307c.035-2.869 1.163-2.581 3.38.861 2.33 3.616 1.812 6.305-1.721 8.954-2.778 2.082-4.072 4.764-2.876 5.96 1.196 1.196-4.875 1.818-13.49 1.382-8.617-.436-14.954-1.955-14.084-3.376.871-1.421-.151-2.584-2.269-2.584-2.118 0-2.731-1.814-1.36-4.03 1.698-2.749.576-3.297-3.524-1.723-3.308 1.27-7.679 2.308-9.713 2.308-2.069 0-1.417 2.655 1.48 6.029 7.967 9.276 10.048 14.003 6.997 15.888-1.533.948-4.271-1.54-6.085-5.528z" fill="#607d8b"/></svg>