<svg xmlns="http://www.w3.org/2000/svg" viewBox="0 0 454.11249 186.9875" height="186.99" width="454.11">
  <path d="M92.63 82.4c0 14.66-8.22 21.85-21.22 21.85-3.6 0-6.8-.58-9.6-1.7C82.6 102.55 82 82.8 82 82.8V55.1h10.63v27.3zM52.78 96c-2.95-3.33-3.67-7.48-3.67-13.63v-27.3h10.7v27.38c0 7.88 4 11.96 10.5 11.96 1.6 0 3-.2 4.2-.6-.3.5-.7 1-1.2 1.5-2.9 3-7 4.1-12.4 4.1-2.8 0-6-1-7.9-3.2zm54.03-47.28S90.3 36.3 71.6 36.3c-18.7 0-35.26 12.44-35.26 12.44s-.1 34.05 2.2 46.4c2.33 12.36 33.06 28.1 33.06 28.1s30.72-15.74 33.05-28.1c2.33-12.35 2.2-46.4 2.2-46.4m29.3 6.34v23.05c0 2.22.5 3.94 1.53 5.15 1.03 1.2 2.56 1.82 4.6 1.82 1.53 0 2.94-.34 4.26-1 1.3-.68 2.56-1.6 3.74-2.78V55.08H159v36.28h-5.34c-1.14 0-1.88-.53-2.23-1.6l-.6-2.9c-.75.77-1.53 1.45-2.33 2.08-.8.63-1.66 1.15-2.56 1.6-.9.43-1.9.77-2.93 1.02-1 .25-2.1.37-3.3.37-2 0-3.7-.34-5.2-1-1.5-.7-2.8-1.64-3.8-2.86s-1.8-2.68-2.3-4.37c-.5-1.68-.8-3.54-.8-5.57V55.08h8.8m32.3 36.28V55.08h5.3c1.2 0 1.9.52 2.2 1.58l.6 2.87c.8-.75 1.5-1.44 2.3-2.05.8-.6 1.7-1.14 2.6-1.6.9-.44 1.9-.78 3-1.02 1-.24 2.2-.35 3.4-.35 2 0 3.8.4 5.3 1 1.6.7 2.8 1.7 3.9 2.9s1.8 2.7 2.3 4.4c.6 1.7.8 3.6.8 5.6v23.1h-8.7V68.3c0-2.2-.5-3.94-1.6-5.15-1-1.2-2.5-1.82-4.6-1.82-1.5 0-2.9.35-4.2 1.03-1.3.7-2.5 1.62-3.7 2.8V91.4h-8.7m82-36.33v6.48H236v9.2h12v6.5h-12.4V91.4H227V55.03h23.4m32.4 18.17c0-1.8-.23-3.42-.7-4.86-.46-1.44-1.12-2.65-2-3.65-.87-1-1.94-1.8-3.2-2.3-1.26-.6-2.7-.8-4.3-.8-1.64 0-3.1.2-4.36.8-1.27.5-2.34 1.3-3.2 2.3-.83 1-1.5 2.2-2 3.6-.43 1.4-.7 3-.7 4.8 0 1.8.27 3.4.7 4.8.5 1.4 1.17 2.6 2 3.6.9 1 2 1.7 3.26 2.3 1.27.5 2.72.7 4.35.7 1.6 0 3.06-.3 4.3-.8 1.28-.6 2.35-1.3 3.2-2.3.9-1 1.56-2.2 2-3.7.5-1.5.7-3.1.7-4.9zm8.63 0c0 2.62-.45 5.06-1.35 7.32-.9 2.26-2.2 4.22-3.82 5.9-1.65 1.66-3.63 2.97-5.95 3.92-2.3.95-4.9 1.42-7.7 1.42s-5.4-.47-7.7-1.42-4.3-2.26-5.9-3.93c-1.6-1.6-2.9-3.6-3.8-5.8-.9-2.2-1.3-4.7-1.3-7.3s.5-5 1.4-7.3c.9-2.2 2.2-4.2 3.9-5.9 1.7-1.6 3.7-2.9 6-3.9 2.4-.9 4.9-1.4 7.8-1.4s5.4.5 7.7 1.5c2.4 1 4.3 2.3 6 4 1.7 1.7 2.9 3.7 3.8 5.9.9 2.3 1.4 4.7 1.4 7.3m14.2-1.1h3.4c1.2 0 2.1-.1 3-.4.8-.3 1.4-.7 1.9-1.2s.9-1.1 1.2-1.8c.2-.7.4-1.4.4-2.2 0-1.6-.5-2.8-1.6-3.7-1-.9-2.6-1.3-4.8-1.3H306v10.7zm0 5.8v13.4h-8.4V55.1H309c2.64 0 4.88.26 6.74.8 1.84.54 3.35 1.3 4.52 2.25 1.17.96 2.02 2.1 2.55 3.4.6 1.3.8 2.7.8 4.3 0 1.18-.1 2.3-.4 3.3-.3 1.1-.8 2-1.4 2.9-.6.9-1.4 1.7-2.3 2.4-.9.7-1.9 1.3-3.1 1.76.6.3 1.1.6 1.6 1.1.5.4.9.9 1.3 1.5l7.8 12.6h-7.6c-1.4 0-2.4-.5-3-1.6l-6-10.5c-.2-.4-.5-.8-.9-1-.3-.2-.8-.3-1.5-.3H306m-96.5 13.4h8.47V55.1h-8.45v36.3zm-70.96 31.4c.14 0 .27.1.38.2l1.1 1.2c-.6.7-1.3 1.3-2.2 1.7-.8.4-1.9.6-3.1.6-1.1 0-2-.2-2.9-.5-.8-.4-1.6-.9-2.2-1.6-.6-.7-1.1-1.4-1.4-2.4-.3-.9-.4-1.9-.4-3s.2-2.1.6-3c.37-.9.88-1.7 1.5-2.3.7-.6 1.5-1.1 2.4-1.5.9-.3 1.9-.5 3.04-.5 1.1 0 2.04.2 2.85.6.8.3 1.5.8 2.1 1.4l-.9 1.3c0 .1-.1.2-.2.3-.1.1-.2.1-.3.1-.2 0-.3-.1-.5-.2l-.6-.4c-.2-.1-.6-.3-.9-.4s-.8-.2-1.4-.2c-.7 0-1.3.1-1.9.3-.5.2-1 .6-1.4 1-.4.5-.7 1-1 1.7-.2.6-.3 1.3-.3 2.1s.2 1.5.4 2.2c.2.6.6 1.1 1 1.6.4.4.9.7 1.4 1 .5.2 1.1.3 1.7.3.4 0 .7 0 1-.1.3 0 .6-.1.9-.2.3-.1.5-.2.8-.3.2-.2.5-.3.7-.5l.2-.2h.3m6.6 1.9h.7c.2 0 .4-.1.6-.2l.6-.3c.2-.2.4-.3.5-.5v-2c-.7 0-1.3.1-1.8.2s-.8.2-1.1.3c-.3.2-.5.3-.6.5-.1.2-.1.4-.1.7 0 .4.1.7.4.9.3.2.6.3 1 .3zm4.9 1.6H149c-.2 0-.4 0-.53-.1-.12-.1-.22-.2-.3-.4l-.2-.7c-.27.3-.53.5-.78.7-.3.1-.5.3-.8.4s-.6.2-.9.2c-.3.1-.7.1-1 .1-.5 0-.9-.1-1.3-.2s-.7-.3-1-.5c-.3-.2-.5-.5-.6-.9-.2-.3-.3-.7-.3-1.2 0-.4.1-.8.3-1.2.2-.4.5-.7 1-1 .4-.3 1.1-.6 1.9-.8.8-.2 1.7-.3 2.9-.3v-.7c0-.7-.1-1.2-.4-1.5-.3-.3-.7-.5-1.3-.5-.4 0-.8.1-1 .2s-.5.2-.7.3l-.6.3c-.2.1-.4.2-.6.2-.2 0-.3-.1-.4-.1-.2-.1-.3-.2-.3-.4l-.5-.8c1.2-1.1 2.6-1.6 4.3-1.6.6 0 1.1.1 1.6.3.5.2.9.5 1.2.9.3.3.6.7.8 1.2.2.5.3 1 .3 1.6v6.5m2.5.1V116h1.5c.3 0 .5.1.6.4l.1.84c.2-.25.4-.4.6-.6.2-.2.5-.35.7-.5l.8-.3c.3-.1.6-.1 1-.1.6 0 1.1.1 1.5.3.4.2.8.44 1.1.8.3.33.5.75.7 1.23.1.5.2 1 .2 1.6v6.6H159v-6.6c0-.67-.14-1.1-.43-1.5-.28-.4-.7-.6-1.3-.6-.4 0-.8.1-1.2.3-.4.2-.75.44-1.08.8v7.4h-2.5m14.7-1.53c.2 0 .5-.1.7-.1l.6-.2c.2-.1.4-.3.5-.4.2-.1.3-.3.5-.5v-1.7c-.8 0-1.4.1-1.8.2-.5.1-.9.2-1.2.4-.3.15-.5.3-.7.5-.1.2-.1.4-.1.6 0 .4.1.7.4.9.2.2.5.3 1 .3zm4.8 1.5h-1.1c-.2 0-.4 0-.6-.1s-.3-.2-.3-.4l-.3-.7c-.3.2-.5.4-.8.6s-.5.3-.8.4-.6.2-.9.26c-.3 0-.7.1-1.1.1-.4 0-.8-.1-1.2-.2-.4-.1-.7-.3-1-.5-.3-.2-.5-.5-.6-.9-.2-.4-.3-.8-.3-1.3 0-.4.1-.78.3-1.16.2-.4.6-.7 1.1-1 .5-.3 1.1-.6 1.9-.8.8-.2 1.8-.3 3-.3v-.6c0-.7-.1-1.2-.4-1.6-.3-.3-.8-.5-1.3-.5-.4 0-.8.05-1 .14-.3.1-.5.2-.7.3l-.6.3c-.1.1-.3.2-.5.2s-.3 0-.4-.1c-.1-.1-.2-.2-.3-.4l-.4-.8c1.2-1.1 2.6-1.6 4.3-1.6.6 0 1.1.1 1.6.3.4.2.8.47 1.2.8.3.35.6.77.7 1.26.2.5.3 1.05.3 1.64v6.5m6.4-1.8c.6 0 1-.1 1.4-.3.3-.2.7-.57 1-.97v-4.6c-.3-.3-.6-.6-.9-.7-.4-.1-.7-.2-1.1-.2-.4 0-.7.1-1 .2-.3.2-.6.4-.8.7-.2.3-.4.7-.5 1.1-.1.5-.2 1-.2 1.6 0 .6 0 1.1.1 1.5.1.4.3.8.5 1.1.2.2.4.4.7.5s.5.2.9.2zm3.4 1.8c-.4 0-.6-.14-.7-.45l-.2-1c-.2.2-.5.4-.7.6-.2.2-.5.3-.8.5l-.9.3c-.3.07-.6.1-1 .1-.5 0-1.1-.1-1.5-.35-.5-.2-.9-.6-1.2-1-.4-.46-.6-1-.8-1.7-.2-.7-.3-1.43-.3-2.3 0-.8.1-1.5.3-2.14.2-.7.5-1.25.9-1.7.4-.5.9-.9 1.4-1.17.5-.26 1.2-.4 1.8-.4.5 0 1 .1 1.4.3.4.2.8.42 1.1.73V111h2.5v15h-1.5m6.9-10.36V126H186v-10.3h2.5zm.4-3c0 .2-.1.4-.2.6l-.3.5c-.2.12-.3.23-.5.32-.2.05-.4.1-.7.1-.2 0-.4-.05-.6-.1-.2-.1-.4-.2-.5-.37-.1-.2-.3-.3-.3-.5-.1-.2-.2-.4-.2-.6 0-.3 0-.5.1-.7.1-.2.2-.4.4-.5s.3-.3.5-.4c.2-.1.4-.1.6-.1.2 0 .4 0 .6.1.2.1.4.2.5.4.2.1.3.3.4.5.1.2.1.4.1.6m5.7 11.8c.2 0 .5 0 .7-.1.2-.1.4-.1.6-.2.2-.1.4-.2.5-.4.2-.2.4-.3.6-.5v-1.8c-.7 0-1.3 0-1.8.1s-.9.2-1.2.4c-.3.1-.5.3-.6.5s-.2.4-.2.6c0 .4.2.7.4.9.3.2.6.3 1 .3zm4.8 1.5H198c-.3 0-.4-.1-.6-.1s-.27-.2-.3-.5l-.26-.7c-.2.2-.5.4-.7.6s-.5.3-.8.4-.5.2-.8.2c-.3 0-.6.1-1 .1s-.8-.1-1.2-.2c-.4-.1-.7-.3-.93-.6-.3-.3-.5-.6-.6-.9-.1-.4-.2-.8-.2-1.2 0-.4.1-.8.3-1.2.2-.4.6-.7 1.1-1.1.5-.3 1.1-.6 1.9-.8.8-.2 1.8-.3 3-.3v-.6c0-.7-.1-1.2-.4-1.6-.3-.4-.8-.5-1.3-.5-.4 0-.8 0-1 .1-.3.1-.5.2-.7.3l-.6.3c-.1.1-.3.1-.5.1s-.3 0-.5-.1l-.3-.3-.4-.8c1.2-1.1 2.7-1.6 4.3-1.6.6 0 1.2.1 1.7.3.5.2.9.5 1.2.8.3.3.6.8.8 1.3.2.5.2 1 .2 1.6v6.5m2.4 0V115h1.6c.3 0 .6.1.7.4l.2.84c.2-.3.4-.4.6-.6.2-.2.5-.4.7-.5.2-.2.5-.3.8-.3.3-.1.6-.1 1-.1.5 0 1 .1 1.5.23.4.2.8.5 1 .8.3.4.6.8.7 1.3.2.5.3 1 .3 1.6v6.6h-2.5V119c0-.65-.2-1.14-.5-1.5-.3-.33-.7-.5-1.3-.5-.4 0-.8.1-1.2.3-.4.2-.7.47-1.1.8v7.5H202m24.9-14.5v2.15h-7v4.3h5.43v2.1H220v6h-2.75v-14.6h9.2m1.4 14.54v-10.2h1.46c.3 0 .5.1.6.2.1.1.2.2.2.5l.2 1.2c.4-.7.8-1.2 1.3-1.5.5-.4 1.1-.6 1.7-.6.5 0 .9.1 1.3.4l-.3 1.8c0 .1 0 .2-.1.3s-.1.1-.3.1c-.1 0-.2 0-.4-.1s-.4-.1-.7-.1c-.5 0-.9.1-1.3.4-.3.3-.7.7-.9 1.3v6.5H228m12.54-8.7c-.73 0-1.3.2-1.7.6-.42.4-.7 1-.8 1.7h4.68c0-.3-.04-.6-.13-.9-.1-.3-.3-.5-.4-.8-.2-.2-.4-.4-.7-.5-.3-.1-.6-.2-1-.2zm-.05-1.8c.6 0 1.2.1 1.8.3.5.2 1 .5 1.4.9.4.4.7.9.9 1.4.2.5.3 1.2.3 1.9v.5l-.1.3-.2.2h-6.7c.1 1 .4 1.8.9 2.3s1.2.7 2 .7c.4 0 .7-.1 1-.2.3-.1.5-.2.8-.3l.6-.3c.1-.1.3-.1.4-.1.1 0 .2 0 .2.1.1 0 .2.1.2.2l.7.9c-.3.3-.6.6-1 .8-.4.2-.7.4-1.1.5-.4.1-.8.2-1.2.2-.4 0-.8.1-1.2.1-.7 0-1.4-.2-2-.4-.6-.3-1.2-.6-1.6-1.1-.5-.5-.8-1-1.1-1.7-.3-.7-.4-1.5-.4-2.4 0-.7.1-1.4.3-2 .2-.6.6-1.2 1-1.6.4-.5.9-.9 1.5-1.1.6-.3 1.3-.4 2.1-.4m10.8 1.8c-.7 0-1.3.2-1.7.6-.4.4-.7 1-.8 1.7h4.7c0-.3-.1-.6-.2-.9-.1-.3-.2-.5-.4-.7-.2-.2-.4-.4-.7-.5-.3-.2-.6-.2-1-.2zm-.1-1.8c.6 0 1.2.1 1.8.3.5.2 1 .6 1.4 1 .4.4.7.9.9 1.4.2.6.3 1.2.3 2v.4c0 .2-.1.3-.1.3l-.2.2h-6.6c.1 1.1.4 1.9.9 2.4s1.1.8 1.9.8c.4 0 .7 0 1-.1.3-.1.6-.2.8-.3l.6-.4c.1-.1.3-.1.5-.1.1 0 .2.1.2.1.1 0 .1.1.2.2l.7.9c-.3.3-.6.6-.9.8-.4.2-.7.4-1.1.5-.4.1-.7.2-1.1.2-.4 0-.8.1-1.2.1-.7 0-1.4-.1-2-.4-.6-.3-1.2-.6-1.6-1.1-.5-.5-.8-1-1.1-1.7s-.4-1.5-.4-2.4c0-.7.1-1.4.3-2 .2-.6.5-1.2 1-1.6.4-.5.9-.9 1.5-1.1.6-.3 1.3-.4 2.1-.4m6.6 10.5h2.5v-15h-2v15zm8.6-1.6c.2 0 .5-.1.7-.1l.6-.2c.2-.1.4-.3.6-.4l.5-.5V121c-.7 0-1.3.08-1.8.17-.5.1-.9.2-1.2.3-.3.1-.5.3-.7.5s-.2.4-.2.6c0 .43.1.74.4.93.2.2.6.3 1 .3zm4.8 1.5h-1.1c-.3 0-.5 0-.6-.1-.2-.1-.3-.2-.3-.4l-.3-.8c-.3.3-.5.5-.8.6s-.6.4-.8.5l-.9.3c-.3.1-.7.1-1.1.1-.4 0-.8-.1-1.2-.2-.4-.1-.7-.3-.9-.5-.3-.2-.5-.5-.6-.9-.2-.4-.2-.8-.2-1.3 0-.4.1-.8.3-1.2.2-.4.5-.8 1-1.1.5-.3 1.1-.6 1.9-.8.8-.2 1.8-.3 3-.3v-.6c0-.7-.2-1.2-.5-1.5-.3-.4-.7-.5-1.3-.5-.4 0-.8 0-1 .1-.3.1-.5.2-.7.3l-.6.3c-.2.1-.4.1-.6.1-.2 0-.3-.1-.4-.2l-.3-.3-.5-.8c1.2-1.1 2.6-1.6 4.3-1.6.6 0 1.1.1 1.6.3.4.2.8.4 1.2.8.3.3.6.8.7 1.2.2.5.3 1.1.3 1.7v6.5m2.5 0V115h1.5c.3 0 .5.2.6.5l.1.9.6-.6c.2-.1.5-.3.7-.4l.8-.3c.3-.07.6-.1 1-.1.5 0 1 .1 1.5.3.4.2.8.5 1.1.8.3.33.5.8.6 1.23.2.5.2 1 .2 1.6v6.6H279V119c0-.6-.2-1.1-.5-1.4-.3-.4-.77-.6-1.3-.6-.5 0-.9.1-1.26.3-.4.2-.7.5-1.1.8v7.5h-1m18.7-8.1c-.06.1-.14.2-.2.2-.06.1-.16.1-.3.1-.1 0-.25 0-.37-.1-.1-.1-.25-.2-.42-.3-.1-.1-.3-.2-.6-.2-.2-.07-.5-.1-.8-.1-.4 0-.8.1-1.2.23-.3.13-.6.4-.8.7-.2.3-.3.7-.5 1.1-.1.4-.1.9-.1 1.42 0 .5.1 1 .2 1.5.1.4.3.8.5 1.1.2.3.5.5.8.6.3.12.7.2 1.1.2s.7 0 1-.1c.3-.1.5-.2.6-.3l.5-.4c.1-.1.3-.17.4-.17.2 0 .4.02.5.2l.7.9c-.3.3-.6.6-.9.8-.3.2-.6.4-1 .5-.3.1-.7.2-1.1.25-.4.1-.7.1-1.1.1-.6 0-1.2-.1-1.8-.3-.6-.2-1.1-.6-1.5-1-.4-.4-.7-1-1-1.6-.2-.6-.3-1.4-.3-2.2 0-.75.1-1.46.3-2.1.2-.65.5-1.2 1-1.7.4-.46.9-.8 1.6-1.1.6-.27 1.4-.4 2.2-.4.8 0 1.5.1 2.1.4.6.2 1.1.6 1.6 1.1l-.6.9m6.7-.6c-.7 0-1.3.2-1.7.6-.4.4-.7 1-.8 1.7h4.7c0-.36 0-.66-.1-.9-.1-.3-.2-.58-.4-.8-.2-.2-.4-.4-.7-.5-.2-.1-.6-.2-.9-.2zm0-1.8c.7 0 1.3.1 1.8.3.6.2 1 .5 1.4.9.4.4.7.9 1 1.42.2.56.3 1.23.3 2v.5l-.1.3c-.1.04-.1.1-.2.12l-.3.02H297c.1 1.1.34 1.9.84 2.4s1.1.7 1.94.7c.4 0 .7 0 1-.1.3-.1.5-.2.74-.3l.54-.4c.2-.1.36-.2.5-.2.1 0 .2.1.28.1l.2.2.7.9c-.3.4-.6.6-.9.8-.32.2-.7.4-1.05.5l-1.2.3c-.4.1-.8.1-1.1.1-.8 0-1.4-.1-2-.4-.7-.3-1.2-.6-1.7-1.1-.4-.5-.8-1-1-1.7s-.4-1.5-.4-2.4c0-.7.1-1.4.3-2 .2-.6.5-1.2 1-1.6.4-.5.9-.9 1.5-1.1.6-.3 1.3-.4 2.1-.4m16.4 8.3c.5 0 1-.1 1.4-.3.4-.2.8-.4 1.1-.7.3-.3.5-.7.6-1.1.2-.5.2-1 .2-1.5v-8h2.7v8.7c0 .8-.2 1.6-.5 2.4-.3.7-.7 1.4-1.2 1.9s-1.1.9-1.9 1.2c-.7.3-1.6.4-2.5.4-.9 0-1.7-.2-2.5-.5-.7-.3-1.4-.7-1.9-1.3s-.9-1.2-1.2-1.9c-.3-.8-.4-1.6-.4-2.4V112h2.7v8.7c0 .57.1 1.07.2 1.5.1.47.4.86.6 1.18.3.32.6.56 1 .74.4.13.9.22 1.4.22m8.7 2.16v-10.4h1.5c.3 0 .5.18.6.48l.2.84c.2-.2.4-.4.7-.6.2-.13.5-.3.7-.4.3-.15.5-.25.8-.3.3-.1.6-.1 1-.1.6 0 1.1.1 1.5.27.4.2.8.5 1.1.8.3.3.5.8.7 1.2.2.5.2 1 .2 1.6v6.6H331v-6.6c0-.6-.14-1.1-.43-1.5-.3-.4-.7-.5-1.3-.5-.42 0-.83.1-1.2.3-.4.2-.74.4-1.07.8v7.4h-3m14.14-10.3v10.3h-2.5V116h2.5zm.37-3c0 .2 0 .4-.1.6-.1.2-.2.3-.3.5-.1.1-.3.2-.5.3-.2.1-.4.1-.6.1-.2 0-.4-.1-.6-.1-.2-.1-.3-.2-.5-.4s-.2-.3-.3-.5c-.1-.2-.1-.4-.1-.6 0-.2.1-.4.2-.6.1-.2.2-.4.4-.5.2-.1.3-.3.5-.3.2-.1.4-.2.6-.2.3 0 .5 0 .7.1.2.1.4.2.5.3.2.1.3.3.4.5.1.2.2.4.2.6m6.8 11.5c.9 0 1.5-.3 1.9-.9.5-.6.7-1.4.7-2.6 0-1.1-.2-2-.6-2.6-.4-.6-1-.9-1.9-.9-.8 0-1.5.3-1.9.9-.4.6-.6 1.4-.6 2.5s.2 1.9.6 2.5c.4.5 1.1.8 1.9.8zm0-8.7c.8 0 1.5.1 2.1.3.7.2 1.2.6 1.6 1 .5.4.8 1 1.1 1.7.3.6.4 1.4.4 2.2 0 .8-.1 1.5-.3 2.2-.3.6-.6 1.2-1 1.7-.4.4-.9.8-1.6 1-.6.2-1.3.4-2.1.4s-1.4-.1-2.1-.4c-.6-.2-1.2-.6-1.6-1.1-.5-.5-.8-1-1.1-1.7-.3-.6-.4-1.4-.4-2.2 0-.8.1-1.6.4-2.2.3-.7.6-1.2 1.1-1.7.5-.4 1-.8 1.6-1 .7-.2 1.4-.4 2.1-.4m7.1 10.5v-10h1.5c.3 0 .5.1.6.4l.2.8.6-.6.8-.5c.3-.2.6-.3.9-.3.3-.1.6-.1 1-.1.6 0 1.1.1 1.5.3.5.2.8.5 1.1.8.3.3.5.8.7 1.2.2.5.3 1 .3 1.6v6.6h-3v-6.6c0-.6-.1-1.1-.4-1.5-.3-.3-.7-.5-1.3-.5-.4 0-.8.1-1.2.3-.4.2-.7.5-1.1.8v7.5h-2.5m-222.3 22.2h5.9v2.2h-8.5v-15h2.7V148m11.5-6.5c-.7 0-1.3.2-1.7.6-.4.44-.7 1-.8 1.78h4.7c0-.33 0-.63-.1-.9-.1-.2-.2-.5-.4-.7-.2-.2-.4-.4-.7-.5-.2-.1-.6-.2-.9-.2zm0-1.8c.7 0 1.3.14 1.8.35.6.2 1.1.56 1.5.96.4.4.7.9.9 1.5.3.6.4 1.3.4 2v.5c0 .1-.1.2-.1.3 0 .1-.1.1-.2.2h-7c.1 1 .4 1.8.9 2.3.5.5 1.2.7 2 .7.4 0 .8-.1 1.1-.2.3-.1.5-.2.7-.3l.6-.3c.2-.1.4-.1.5-.1.1 0 .2.1.3.1l.2.2.8.9c-.2.4-.6.6-.9.9-.3.3-.7.4-1 .6-.3.1-.7.2-1.1.3-.4.1-.7.1-1.1.1-.7 0-1.4-.1-2-.4-.6-.2-1.1-.6-1.6-1-.4-.5-.8-1.1-1.1-1.8-.2-.7-.4-1.5-.4-2.4 0-.7.2-1.3.4-2 .2-.6.5-1.1 1-1.6.4-.4 1-.8 1.6-1.1.6-.2 1.3-.4 2.1-.4m16.6 2.2c0 .1-.1.2-.2.3 0 .1-.1.1-.3.1-.1 0-.2 0-.4-.1l-.4-.2c-.2-.1-.4-.1-.6-.2-.3 0-.5-.1-.8-.1-.5 0-.9.1-1.2.4-.3.2-.4.5-.4.8 0 .2.1.4.2.6.1.1.3.3.6.4.3.1.5.2.8.3l1 .3c.3.1.6.2.9.4.3.1.6.3.8.5.3.2.5.5.6.8.2.3.2.7.2 1.1 0 .5-.1.9-.2 1.3-.2.5-.5.8-.8 1.1-.4.3-.8.6-1.3.7-.5.2-1.1.3-1.8.3-.3 0-.7 0-1-.1l-1-.3c-.3-.1-.6-.2-.8-.4l-.7-.5.6-.9.3-.2s.2-.1.4-.1.3.1.4.2c.1.1.3.2.5.3l.6.3c.2.1.5.1.9.1.3 0 .5 0 .7-.1.2 0 .4-.1.5-.3.2-.1.3-.2.3-.4.1-.1.1-.3.1-.4 0-.2 0-.4-.2-.6l-.6-.4c-.2-.1-.5-.2-.8-.3l-.9-.3-.9-.3c-.3-.1-.5-.3-.8-.5-.2-.2-.4-.5-.5-.8-.1-.3-.2-.7-.2-1.1 0-.5.1-.9.3-1.2.2-.4.4-.8.7-1 .3-.2.8-.5 1.2-.6.5-.2 1.1-.3 1.7-.3.7 0 1.4.1 2 .3.6.3 1.1.6 1.5.9l-.5.9m6.3 11.2c0 .2-.1.3-.3.4-.1.1-.3.1-.5.1h-3l2-4.2-4.12-9.6h2.2c.2 0 .34 0 .45.1.1.1.2.2.2.3l2.2 5.4.2.5c.05.1.1.3.14.5.06-.2.1-.4.18-.6l.2-.5 2.1-5.3c.1-.1.17-.3.3-.3.1-.1.25-.2.4-.2h2l-5.64 13.2m7-2.8v-10.3h1.5c.3 0 .55.1.65.4l.2.8c.2-.2.4-.4.64-.6.22-.1.47-.3.73-.4l.87-.3c.3-.1.6-.1.9-.1.5 0 1 .1 1.5.3.4.2.8.4 1.1.8.3.3.5.8.6 1.2.1.5.2 1 .2 1.6v6.6H178v-7c0-.6-.16-1.1-.45-1.4-.3-.3-.73-.5-1.32-.5-.4 0-.8.1-1.2.3-.32.2-.7.5-1.02.8v7.5h-2.5M187 149c.6 0 1-.1 1.4-.3.4-.2.7-.5 1-.9V143c-.2-.34-.6-.6-.9-.72-.3-.14-.7-.2-1.1-.2-.3 0-.7.06-1 .2-.3.14-.5.36-.8.64-.2.3-.3.7-.4 1.1-.1.5-.1 1-.1 1.6 0 .6.1 1.1.2 1.6.1.4.3.8.5 1.1s.4.5.7.6c.3.1.6.2.9.2zm3.4 1.87c-.3 0-.5-.2-.6-.5l-.2-1c-.2.26-.4.48-.6.67-.3.2-.5.37-.8.5-.3.16-.6.27-.9.3-.3.1-.6.1-1 .1-.5 0-1.1-.1-1.5-.3-.4-.23-.8-.6-1.2-1.02-.3-.4-.6-1-.8-1.62-.2-.6-.3-1.4-.3-2.2 0-.7.1-1.5.3-2.1.2-.6.5-1.2.9-1.7s.9-.9 1.4-1.1c.6-.2 1.2-.4 1.9-.4.6 0 1.1.1 1.5.3.4.2.8.5 1.1.8V136h2.5v15h-1.5m6.9-10.3V151H195v-10.4h2.5zm.4-3c0 .2 0 .4-.1.6l-.3.5-.5.3c-.2.1-.4.1-.6.1-.2 0-.4 0-.6-.1-.2-.1-.3-.2-.5-.3-.1-.1-.2-.3-.3-.5-.1-.2-.1-.4-.1-.6 0-.2.1-.4.1-.6.1-.2.2-.3.4-.5.2-.1.3-.2.5-.3.2-.1.4-.1.6-.1.3 0 .5.1.7.2.2.1.4.2.5.4.2.2.3.4.4.5.1.2.1.5.1.7m9.6 5.2l-.2.2c-.1.1-.2.1-.3.1s-.2 0-.4-.1c-.1-.1-.2-.2-.4-.3-.1-.1-.3-.2-.6-.3-.2 0-.5-.1-.8-.1-.4 0-.8.1-1.1.3-.3.2-.6.4-.8.7-.2.3-.4.7-.5 1.1-.1.4-.2.9-.2 1.4 0 .6.1 1.1.2 1.5.1.4.3.8.5 1.1.3.3.5.5.8.7.4.2.7.2 1.1.2s.7-.1 1-.2.5-.2.6-.3c.2-.1.4-.2.5-.3.1-.1.3-.1.4-.1.2 0 .3.1.4.3l.7.9c-.3.3-.6.6-.9.8-.3.2-.6.4-1 .5l-1.1.3c-.4.07-.7.1-1.1.1-.6 0-1.2-.1-1.8-.34-.6-.3-1-.6-1.5-1.1-.4-.5-.7-1-1-1.7-.2-.63-.3-1.4-.3-2.24 0-.72.2-1.43.4-2.1.2-.62.5-1.2 1-1.7.4-.43.9-.8 1.6-1.1.6-.24 1.3-.4 2.1-.4s1.5.1 2 .4c.6.2 1.1.6 1.6 1.05l-.7.9m5.5 6.6c.3 0 .5-.1.7-.1l.6-.2c.2-.1.4-.27.6-.4.2-.16.4-.3.6-.5V147c-.7 0-1.3.1-1.8.18-.5.1-.8.2-1.1.4-.3.17-.5.3-.6.5s-.2.4-.2.65c0 .4.2.7.4.9.3.2.6.3 1 .3zm4.7 1.3H217c-.2 0-.4-.05-.5-.1-.1-.1-.2-.2-.3-.45l-.2-.7c-.3.24-.58.45-.8.6s-.5.36-.8.5c-.26.16-.55.2-.85.3-.3.1-.6.1-1 .1s-.8-.06-1.2-.2c-.4-.1-.7-.3-.9-.5-.3-.25-.5-.55-.6-.9-.2-.36-.3-.77-.3-1.2 0-.4.1-.8.3-1.2.2-.4.6-.7 1.1-1.02.5-.3 1.1-.6 1.9-.8.8-.2 1.8-.3 3-.3v-.6c0-.7-.1-1.2-.4-1.6-.3-.3-.7-.5-1.2-.5-.4 0-.7.07-1 .17s-.5.2-.7.3c-.2.1-.4.2-.54.3-.2.1-.3.1-.6.1-.1 0-.3 0-.4-.1l-.3-.3-.4-.8c1.2-1.1 2.7-1.6 4.3-1.6.6 0 1.2.1 1.7.3.5.2.9.5 1.2.8.4.3.6.7.8 1.2.2.5.3 1 .3 1.6v6.5m5.7.2c-.9 0-1.6-.3-2.1-.8-.4-.5-.7-1.2-.7-2.1v-5.8H220c-.12 0-.24-.1-.33-.1-.1-.1-.17-.3-.17-.4v-1l1.67-.3.5-2.8c0-.1.1-.2.2-.3.1-.1.2-.1.38-.1h1.3v3.2h2.75v1.8H223v5.6c0 .4.07.6.23.8.16.12.37.2.64.2.15 0 .28 0 .4-.02l.26-.1.2-.1c.07-.04.13-.1.2-.1.06 0 .12.1.17.1.07.08.1.1.17.2l.75 1.2c-.37.3-.8.5-1.26.7-.47.16-.96.2-1.46.2m15.54-8.3c-.06.1-.13.1-.2.2-.08.06-.18.1-.3.1-.14 0-.26-.1-.4-.1-.1-.1-.25-.2-.42-.3-.16-.1-.36-.2-.6-.3-.22-.1-.5-.1-.85-.1-.44 0-.82.1-1.15.2-.33.2-.6.4-.82.7-.22.3-.38.68-.5 1.1-.1.5-.15.9-.15 1.5 0 .5.06 1 .17 1.4.12.4.3.8.5 1.1.24.3.5.5.82.7.3.1.66.2 1.06.2s.74-.1.98-.2c.25-.1.45-.2.62-.3l.43-.3c.1-.1.27-.1.4-.1.2 0 .38.1.48.2l.8.9c-.3.3-.6.6-.9.8-.3.27-.6.4-1 .57-.3.1-.7.2-1.1.25-.3.1-.7.1-1.1.1-.6 0-1.2-.1-1.8-.4-.5-.2-1-.6-1.4-1-.4-.4-.7-1-1-1.6-.2-.7-.3-1.4-.3-2.3 0-.7.1-1.4.3-2.1.2-.6.6-1.2 1-1.7.4-.4 1-.8 1.6-1.1.7-.3 1.4-.4 2.2-.4.8 0 1.5.1 2.1.4.6.25 1.1.6 1.6 1.07l-.6.9m5.7 6.64h.7l.6-.2c.2-.1.4-.23.6-.4.2-.1.4-.3.5-.5v-1.7c-.7 0-1.3.1-1.8.2s-.9.2-1.2.3c-.3.2-.5.3-.6.5-.1.2-.1.4-.1.7 0 .46.2.77.4.96.3.2.6.3 1 .3zm4.8 1.6h-1.1c-.2 0-.4-.03-.6-.1-.1-.1-.2-.2-.3-.43l-.2-.73c-.2.27-.5.48-.7.6s-.5.38-.7.5-.6.2-.9.3c-.3 0-.6.1-1 .1s-.8-.1-1.2-.2c-.4-.1-.7-.3-.9-.55-.2-.2-.4-.5-.6-.9-.1-.4-.2-.8-.2-1.28 0-.4.1-.8.3-1.2.2-.4.6-.7 1-1 .5-.3 1.1-.6 1.9-.8.8-.2 1.8-.3 3-.3v-.6c0-.7-.1-1.2-.4-1.6-.3-.3-.7-.5-1.3-.5-.4 0-.7 0-1 .1-.2.1-.5.2-.7.3-.2.1-.4.2-.5.3-.1.1-.3.2-.5.2-.1 0-.3-.1-.4-.1-.1-.1-.2-.2-.3-.4l-.5-.8c1.2-1.1 2.6-1.7 4.3-1.7.6 0 1.2.1 1.6.3.5.2.9.4 1.2.8.4.3.6.7.8 1.2.2.5.3 1 .3 1.6v6.4m2.4.1v-10.3h1.6c.3 0 .5.1.7.4l.1.8c.2-.3.4-.4.7-.6.2-.2.5-.4.7-.5.3-.2.5-.3.8-.3.3-.1.6-.1 1-.1.6 0 1.1.1 1.5.3.4.2.8.4 1.1.8.3.3.5.7.7 1.2.2.5.3 1 .3 1.6v6.6H259v-7c0-.6-.16-1.1-.45-1.5-.3-.4-.77-.5-1.3-.5-.5 0-.9.1-1.26.3-.4.2-.7.4-1.1.8v7.5H252m14.8-1.6c.27 0 .5-.1.7-.1l.6-.2c.2-.1.4-.2.6-.4.16-.1.34-.3.52-.5V146c-.7 0-1.3.1-1.8.2s-.9.2-1.2.4c-.27.2-.5.3-.6.5s-.2.4-.2.7c0 .4.14.73.4.9.25.2.6.3 1 .3zm4.8 1.5h-1.1c-.2 0-.4-.1-.5-.1s-.26-.2-.3-.5l-.25-.7-.77.6s-.5.3-.8.4l-.87.3c-.3 0-.6.1-1 .1s-.8-.1-1.2-.2c-.3-.1-.6-.3-.9-.6-.3-.2-.5-.5-.6-.9-.2-.3-.2-.7-.2-1.2 0-.4.1-.8.3-1.1.2-.4.6-.8 1.1-1.1.5-.3 1.1-.6 1.9-.8.8-.2 1.8-.3 3-.3v-.6c0-.7-.1-1.2-.4-1.6-.3-.3-.7-.5-1.2-.5-.4 0-.8 0-1.1.1-.2.1-.5.2-.7.3l-.5.3c-.2.1-.3.1-.5.1-.1 0-.3 0-.4-.1l-.3-.3-.4-.8c1.2-1.1 2.7-1.7 4.3-1.7.6 0 1.2.1 1.7.3.5.2.9.5 1.2.9.4.3.6.8.8 1.3.2.5.3 1 .3 1.6v6.5m6.4-1.8c.6 0 1-.1 1.4-.3.4-.2.7-.5 1.1-.9v-4.7c-.2-.4-.6-.6-.9-.8-.3-.2-.7-.2-1.1-.2-.3 0-.7 0-1 .2-.3.1-.5.3-.8.6-.2.3-.3.7-.5 1.1-.1.4-.1 1-.1 1.6 0 .6.1 1.1.2 1.5.1.4.3.7.4 1 .2.3.4.5.7.6.3.1.6.1.9.1zm3.4 1.8c-.3 0-.5-.1-.6-.4l-.2-1c-.2.3-.4.5-.7.7-.2.2-.5.4-.7.5-.3.1-.6.3-.9.3-.3.1-.6.1-1 .1-.5 0-1.1-.2-1.5-.4-.5-.2-.9-.6-1.2-1-.3-.5-.6-1-.8-1.7-.2-.6-.3-1.4-.3-2.2 0-.8.1-1.5.3-2.2.2-.7.5-1.3.9-1.7.4-.5.9-.9 1.4-1.2.6-.2 1.2-.4 1.9-.4.6 0 1.1.1 1.5.3.4.2.7.4 1.1.7v-5.4h2.5v15h-2m6.9-10.3v10.4H286V140h2.5zm.4-3c0 .2 0 .4-.1.6-.1.2-.2.4-.3.5l-.5.4c-.2.1-.5.1-.7.1-.3 0-.5-.1-.7-.2-.2-.1-.4-.2-.5-.4s-.3-.3-.4-.5c-.1-.2-.2-.4-.2-.6 0-.2.1-.4.2-.6l.4-.5c.1-.1.3-.2.5-.3.2 0 .4-.1.6-.1.2 0 .4.1.6.1.2.1.4.2.5.4.1.2.3.3.3.5.1.2.1.4.1.6m6.8 4.6c-.8 0-1.3.2-1.7.6-.4.4-.7 1-.8 1.8h4.7c0-.4-.1-.7-.2-1-.1-.3-.2-.5-.4-.7-.2-.2-.4-.4-.7-.5-.3-.2-.6-.2-1-.2zm-.1-1.8c.7 0 1.3.1 1.8.3.6.2 1 .5 1.4.9.4.4.7.9.9 1.5.2.6.3 1.2.3 2v.5c0 .1 0 .2-.1.3 0 0-.1.1-.2.1h-6.7c.1 1.1.4 1.9.9 2.4s1.2.8 2 .8c.4 0 .8 0 1.1-.1.3-.1.5-.2.8-.3l.6-.3c.2-.1.3-.2.5-.2.1 0 .2 0 .3.06l.2.2.7.9c-.3.3-.6.6-.9.8-.3.2-.7.4-1.1.5-.4.2-.7.3-1.1.3-.4.1-.7.1-1.1.1-.7 0-1.4-.1-2-.4-.6-.2-1.2-.6-1.6-1.1-.5-.4-.8-1-1.1-1.7-.3-.7-.4-1.5-.4-2.4 0-.7.1-1.4.3-2 .3-.6.6-1.1 1-1.6s1-.8 1.6-1.1c.6-.3 1.3-.4 2.1-.4m6.1 10.5V140h1.5c.3 0 .5.1.6.4l.2.9.6-.6c.3-.2.5-.3.8-.5.3-.2.5-.3.8-.3.3-.1.6-.1 1-.1.5 0 1 .1 1.5.25.4.2.8.5 1.1.8.3.4.5.8.7 1.3.1.45.2 1 .2 1.55v6.6H308V144c0-.62-.1-1.1-.4-1.45-.3-.35-.7-.52-1.3-.52-.4 0-.8.1-1.2.3-.4.2-.8.45-1.1.8v7.47h-3m19.35-1.83c.5 0 .94-.1 1.3-.32.36-.2.7-.52 1.03-.92v-4.63c-.27-.35-.6-.6-.9-.73-.3-.14-.7-.2-1.06-.2-.4 0-.73.06-1.03.2-.3.14-.6.36-.8.64-.2.3-.4.7-.5 1.1-.1.5-.2 1-.2 1.6 0 .6 0 1.1.1 1.6.1.4.2.8.4 1.1.2.3.4.5.7.6.2.1.5.2.9.2zm3.3 1.83c-.33 0-.54-.15-.64-.46l-.2-1c-.2.25-.4.47-.6.66-.2.2-.5.36-.8.5-.3.15-.5.26-.9.33-.3.08-.6.12-1 .12-.5 0-1.1-.12-1.5-.35-.4-.24-.9-.58-1.2-1.03-.3-.44-.6-1-.8-1.66-.2-.6-.3-1.4-.3-2.2 0-.7.1-1.5.3-2.1.3-.6.6-1.2.9-1.7.4-.5.9-.9 1.4-1.1.6-.2 1.2-.4 1.9-.4.6 0 1.1.1 1.5.3.4.2.8.5 1.1.8v-5.4h2.5v15h-1.5m8.4-8.7c-.7 0-1.3.2-1.7.6-.4.4-.6 1-.8 1.8h4.7c0-.3 0-.6-.1-.9 0-.3-.2-.5-.4-.7-.1-.2-.4-.4-.6-.5-.3-.1-.6-.2-1-.2zm0-1.8c.7 0 1.3.1 1.8.3.6.2 1 .6 1.4 1 .4.4.7.9.9 1.5.2.6.4 1.2.4 2v.5c0 .2 0 .3-.1.3 0 .1-.1.1-.1.2l-.3.1h-6.4c.1 1.1.4 1.9.9 2.4s1.2.8 2 .8c.4 0 .7 0 1-.1.3-.1.6-.2.8-.3l.6-.4c.2-.1.3-.2.5-.2.1 0 .2.1.3.1l.2.2.7.9c-.3.3-.6.6-.9.8-.3.2-.7.4-1 .5l-1.1.3c-.4.1-.7.1-1.1.1-.8 0-1.4-.1-2-.4-.7-.3-1.2-.6-1.7-1.1-.4-.5-.8-1-1-1.7-.3-.7-.4-1.5-.4-2.4 0-.7.1-1.4.4-2 .3-.6.6-1.2 1-1.6.4-.5 1-.9 1.6-1.1.6-.3 1.3-.4 2.1-.4m12.7 2.2l-.2.2-.3.1c-.1 0-.3 0-.4-.1l-.5-.2c-.2-.1-.4-.1-.6-.2-.2 0-.5-.1-.8-.1-.5 0-.9.1-1.1.3-.3.2-.5.5-.5.9 0 .2.1.4.3.6.1.1.3.3.6.4.2.1.5.2.8.3l.9.3.9.3c.3.2.6.3.8.6.3.2.4.5.6.7.1.3.2.7.2 1.1 0 .5-.1 1-.3 1.4-.1.4-.4.8-.8 1.1-.3.3-.7.5-1.3.7-.5.2-1.1.3-1.7.3-.3 0-.7-.1-1-.1-.4-.1-.7-.2-1-.3-.3-.1-.6-.3-.9-.4l-.7-.5.6-1c.1-.1.2-.2.3-.2s.2-.1.4-.1c.1 0 .3.1.4.2.2.1.3.2.5.3l.7.3c.3.1.6.2 1 .2.3 0 .5 0 .7-.1.2-.1.4-.2.5-.3.1-.1.2-.2.3-.4 0-.2.1-.3.1-.5s-.1-.4-.2-.6c-.1-.1-.3-.3-.6-.4-.2-.1-.5-.2-.8-.3l-.9-.3c-.3-.1-.6-.2-.9-.4-.3-.1-.6-.3-.8-.5-.2-.2-.4-.5-.6-.8-.1-.3-.2-.7-.2-1.2 0-.4.1-.8.3-1.2.2-.4.5-.7.8-1 .3-.3.7-.5 1.2-.7.5-.1 1-.2 1.7-.2s1.3.1 1.9.3c.6.3 1.1.6 1.5 1l-.6.9m11.4-.2c-.5 0-.9.1-1.3.3-.3.2-.7.5-1 .9v4.6c.3.3.6.6.9.7.4.1.7.2 1.1.2.4 0 .7-.1 1-.2.3-.1.6-.3.8-.6.2-.3.4-.7.5-1.1.1-.5.2-1 .2-1.6 0-.6 0-1.1-.1-1.5-.1-.4-.2-.8-.4-1-.2-.3-.4-.5-.6-.6-.3-.1-.6-.2-.9-.2zm-4.9 11.9v-14h1.6c.2 0 .3 0 .4.1.2.1.2.2.3.4l.2.9c.4-.5.9-.9 1.4-1.1.6-.3 1.2-.4 1.9-.4.6 0 1.1.1 1.6.4.5.26.9.6 1.2 1 .4.5.6 1 .8 1.7.2.7.3 1.4.3 2.3 0 .8-.1 1.5-.3 2.18-.2.7-.5 1.2-.8 1.7-.4.5-.8.9-1.4 1.2-.5.3-1.1.4-1.8.4-.6 0-1.1 0-1.5-.2-.4-.17-.8-.4-1.1-.7v4.3h-2.5m14.1-13.7v10h-3V141h2.5zm.4-3c0 .2 0 .4-.1.6l-.3.5c-.1.1-.3.2-.5.3-.2.1-.4.1-.6.1-.2 0-.4-.1-.6-.2-.2-.1-.4-.2-.5-.3-.13-.1-.3-.3-.32-.5-.1-.2-.1-.4-.1-.6 0-.2 0-.4.1-.6l.3-.5c.2-.1.3-.2.5-.3.2-.1.4-.1.6-.1.2 0 .5 0 .7.1.2.1.4.2.5.3.15.2.3.36.35.5.1.2.2.46.2.68m6 7.9c.3 0 .6 0 .8-.1.3-.1.4-.2.6-.4.1-.1.3-.3.3-.5s.1-.4.1-.7c0-.5-.2-.9-.5-1.2-.3-.3-.76-.5-1.4-.5-.6 0-1.1.2-1.4.5-.3.3-.4.7-.4 1.2 0 .3 0 .5.1.7.1.2.2.4.34.58.13.2.32.3.6.4.2.1.5.1.8.1zm2.8 5.9c0-.2-.1-.4-.2-.5-.2-.12-.3-.22-.5-.3-.2-.1-.5-.12-.8-.2-.3-.1-.6-.1-.9-.1h-1c-.4 0-.7 0-1-.1-.26.17-.5.3-.66.5-.2.2-.23.5-.23.8 0 .2.1.36.2.5.1.2.3.3.5.4.2.1.5.2.8.3.3.06.7.1 1.2.1s.9-.04 1.2-.1c.4-.1.6-.2.9-.3.2-.14.4-.3.5-.5.1-.2.1-.34.1-.6zm-2.8-11c.4 0 .8 0 1.2.1.4.1.7.2 1 .4h3v.9c0 .2 0 .3-.1.4 0 .1-.2.1-.4.2l-.9.1.2.5v.7c0 .5-.1 1-.3 1.4-.2.4-.5.8-.9 1.1-.4.3-.8.5-1.3.6-.5.18-1 .26-1.6.26-.4 0-.77 0-1.1-.1-.37.2-.5.4-.5.7 0 .2.1.4.3.5.2.1.4.2.7.2.3 0 .6.1 1 .1h1.2c.5 0 .9.1 1.3.2.4 0 .7.2 1.05.4.3.1.6.4.77.7.2.3.3.7.3 1.2 0 .4-.13.9-.4 1.3-.2.4-.5.8-1 1.1-.4.3-.9.6-1.5.8-.6.2-1.3.3-2.1.3s-1.5-.1-2.1-.2c-.6-.2-1.1-.4-1.5-.6-.4-.3-.63-.6-.8-.9-.2-.3-.3-.7-.3-1 0-.5.2-.9.5-1.2.3-.4.8-.6 1.3-.8-.3-.2-.5-.4-.6-.6-.2-.2-.3-.5-.3-.9v-.5c0-.2.1-.3.2-.5s.3-.3.5-.5l.6-.4c-.5-.3-.9-.7-1.2-1.1-.3-.5-.5-1.1-.5-1.7 0-.5.1-.9.3-1.4.2-.4.5-.7.9-1 .4-.3.8-.5 1.3-.7.5-.2 1.1-.2 1.7-.2m9.5.2v10h-3V141h2.5zm.3-3c0 .2 0 .4-.1.6-.1.2-.2.4-.4.5s-.3.2-.5.3c-.2.1-.4.1-.6.1-.2 0-.4 0-.6-.1-.2 0-.4-.2-.5-.3s-.3-.3-.4-.5c-.1-.2-.1-.4-.1-.6 0-.2 0-.4.1-.6.1-.2.2-.4.3-.5l.5-.3c.2-.1.4-.2.7-.2s.4.1.6.1c.2.1.3.2.5.3l.3.5c.1.2.18.5.18.7m8.6 5c0 .1-.1.2-.2.2s-.2.1-.3.1c-.1 0-.2 0-.4-.1l-.5-.2c-.2 0-.4-.1-.6-.2-.2 0-.5-.1-.8-.1-.5 0-.9.1-1.1.4-.3.2-.4.5-.4.8 0 .2.1.4.2.5.2.2.37.3.6.4.2.1.5.2.8.3l.9.3c.3.1.6.3.9.4.3.2.6.3.8.5s.5.5.6.8c.1.3.2.7.2 1.1 0 .5-.1 1-.3 1.4-.2.5-.4.8-.8 1.1-.3.3-.8.6-1.3.7-.5.2-1.1.3-1.7.3-.4 0-.7 0-1.1-.1-.3-.1-.67-.1-1-.3-.3-.1-.6-.3-.9-.4l-.7-.5.6-1 .3-.3s.3-.1.4-.1c.2 0 .3.1.5.1.1.1.3.2.5.3l.6.3c.25.1.56.1.94.1.3 0 .5 0 .8-.1.2 0 .4-.1.5-.2s.2-.2.3-.4c.1-.1.1-.3.1-.4 0-.2-.1-.4-.2-.6-.1-.1-.3-.3-.6-.4-.2-.1-.5-.2-.8-.3l-.93-.3c-.3-.1-.6-.2-.9-.4-.3-.1-.6-.3-.9-.5-.2-.2-.4-.5-.6-.8-.1-.3-.2-.7-.2-1.2 0-.4.1-.8.3-1.2.1-.4.4-.7.7-1 .3-.3.7-.5 1.2-.7.5-.2 1-.3 1.7-.3s1.3.1 1.9.4c.6.3 1.1.6 1.5.9l-.6.9m6 8.5c-.9 0-1.6-.2-2.1-.7-.5-.5-.7-1.2-.7-2.1v-6h-1c-.1 0-.3 0-.4-.1-.1-.1-.12-.2-.12-.4v-1l1.6-.2.57-2.8c.1-.1.1-.24.2-.3.1-.1.2-.1.4-.1h1.3v3.2h2.7v1.8h-3v5.6c0 .37.1.6.3.8.2.2.4.3.7.3.2 0 .3-.05.4-.1l.3-.1.2-.1.2-.06c.1 0 .2.04.2.1l.2.14.7 1.2c-.4.3-.8.58-1.3.7-.4.2-.9.2-1.4.2m8.44-8.9c-.7 0-1.3.2-1.7.6-.4.5-.7 1-.8 1.8h4.7c0-.3-.1-.6-.18-.9-.1-.3-.2-.53-.4-.8-.2-.2-.4-.32-.7-.5-.2-.1-.6-.2-.9-.2zm-.1-1.8c.7 0 1.3.2 1.8.4.6.2 1 .5 1.4.9.4.4.7.9.9 1.5.3.5.4 1.2.4 1.94v.4c0 .1-.1.2-.1.3 0 0-.1.1-.2.1h-8c.1 1.1.37 1.8.87 2.3s1.15.8 1.97.8c.4 0 .76-.1 1.05-.2l.7-.3.6-.3c.1-.1.3-.2.5-.2h.2l.2.2.7.9c-.3.4-.6.6-1 .9-.4.2-.7.4-1.1.5-.4.2-.8.3-1.2.3-.4.1-.8.1-1.1.1-.8 0-1.4-.1-2-.3-.7-.3-1.2-.6-1.7-1.1-.5-.5-.8-1.1-1.1-1.8s-.4-1.5-.4-2.4c0-.7.1-1.4.3-2 .2-.6.5-1.2 1-1.6.4-.5.9-.8 1.5-1.1.6-.3 1.3-.4 2-.4m12.6 2.2l-.2.2c-.1 0-.2.1-.3.1-.1 0-.3 0-.4-.1l-.5-.2c-.2-.1-.4-.2-.7-.2-.2-.1-.5-.1-.8-.1-.5 0-.9.1-1.2.3-.3.2-.4.5-.4.8 0 .2 0 .4.2.5.1.2.3.3.6.4.2.1.5.2.8.3l.9.3c.3.1.6.2.9.4.3.1.6.3.8.5.2.2.4.5.6.7.1.3.2.7.2 1.1 0 .5-.1 1-.3 1.4-.2.4-.4.8-.8 1.1-.3.3-.8.5-1.3.7-.5.2-1.1.3-1.8.3-.3 0-.7 0-1-.1l-1-.3-.9-.4c-.3-.2-.5-.4-.7-.5l.5-1 .3-.3s.2-.1.4-.1c.1 0 .3 0 .4.1.2.1.3.2.5.3s.4.2.7.2c.2.1.5.2.9.2.3 0 .6 0 .8-.1.2-.1.4-.15.5-.3.1-.1.2-.2.3-.4 0-.1.1-.3.1-.42 0-.25-.1-.45-.2-.6-.2-.16-.4-.3-.6-.4-.2-.1-.5-.2-.8-.3l-.9-.3c-.3-.1-.7-.2-1-.4-.3-.15-.6-.3-.8-.56-.3-.2-.5-.5-.6-.8-.2-.4-.2-.8-.2-1.2 0-.4 0-.8.2-1.2.2-.4.4-.7.8-1 .3-.3.7-.5 1.2-.7.5-.2 1-.3 1.7-.3s1.3.1 1.9.4c.6.3 1 .6 1.4 1l-.6.9" fill="#2cc36b"/>
</svg>
