<svg xmlns="http://www.w3.org/2000/svg" xmlns:xlink="http://www.w3.org/1999/xlink" viewBox="0 0 25.000001 16.666667" height="17.778" width="26.667"><defs><symbol id="a"><title>Twitter</title><path d="M17.316 6.246c.008.162.011.326.011.488 0 4.99-3.797 10.742-10.74 10.742-2.133 0-4.116-.625-5.787-1.697a7.577 7.577 0 0 0 5.588-1.562 3.779 3.779 0 0 1-3.526-2.621 3.858 3.858 0 0 0 1.705-.065 3.779 3.779 0 0 1-3.028-3.703v-.047a3.766 3.766 0 0 0 1.71.473 3.775 3.775 0 0 1-1.168-5.041 10.716 10.716 0 0 0 7.781 3.945 3.813 3.813 0 0 1-.097-.861 3.773 3.773 0 0 1 3.774-3.773 3.77 3.77 0 0 1 2.756 1.191 7.602 7.602 0 0 0 2.397-.916 3.789 3.789 0 0 1-1.66 2.088 7.55 7.55 0 0 0 2.168-.594 7.623 7.623 0 0 1-1.884 1.953z"/></symbol><symbol class="Brand-Icons" id="b"><title>GitHub</title><path d="M1536 640q0-251-146.5-451.5T1011-89q-27-5-39.5 7T959-52v211q0 97-52 142 57 6 102.5 18t94 39q48.5 27 81 66.5t53 105Q1258 595 1258 680q0 121-79 206 37 91-8 204-28 9-81-11t-92-44l-38-24q-93 26-192 26t-192-26q-16 11-42.5 27t-83.5 38.5q-57 22.5-86 13.5-44-113-7-204-79-85-79-206 0-85 20.5-150T351 425q32-40 80.5-67t94-39Q571 307 628 301q-40-36-49-103-21-10-45-15t-57-5q-33 0-65.5 21.5T356 262q-19 32-48.5 52T258 338l-20 3q-21 0-29-4.5t-5-11.5q3-7 9-14t13-12l7-5q22-10 43.5-38t31.5-51l10-23q13-38 44-61.5t67-30q36-6.5 69.5-7T554 87l23 4q0-38 .5-89t.5-54q0-18-13-30t-40-7Q293-12 146.5 188.5T0 640q0 209 103 385.5T382.5 1305Q559 1408 768 1408t385.5-103q176.5-103 279.5-279.5T1536 640z" transform="matrix(.05 0 0 -.05 0 76.8)"/></symbol><symbol class="Brand-Icons" id="c"><title>LinkedIn Square</title><path d="M237 122h231v694H237V122zm246 908q-1 52-36 86t-93 34q-58 0-94.5-34t-36.5-86q0-51 35.5-85.5T351 910h1q59 0 95 34.5t36 85.5zm585-908h231v398q0 154-73 233t-193 79q-136 0-209-117h2v101H595q3-66 0-694h231v388q0 38 7 56 15 35 45 59.5t74 24.5q116 0 116-157V122zm468 998V160q0-119-84.5-203.5T1248-128H288q-119 0-203.5 84.5T0 160v960q0 119 84.5 203.5T288 1408h960q119 0 203.5-84.5T1536 1120z" transform="matrix(.05 0 0 -.05 0 76.8)"/></symbol><symbol id="d"><title>maximize</title><path d="M2 4v1l6 3 6-3V4H2zm0 2.5V12h12V6.5l-6 3-6-3z"/></symbol></defs><g transform="translate(-167.934 -366.9)"><text style="line-height:125%;-inkscape-font-specification:'Crimson, Bold';text-align:start" x="60.402" y="131.116" font-weight="700" font-size="45" font-family="#dc143c" letter-spacing="0" word-spacing="0" fill="#616161"><tspan x="60.402" y="131.116">Hi.</tspan><tspan x="60.402" y="187.366">I&apos;m Cameron Monagle.</tspan><tspan x="60.402" y="243.616">I make things on the internet.</tspan></text><path fill="none" stroke="#606060" stroke-width="15" d="M-2.02-1.227h748.523v1054.599H-2.02z"/><text y="351.109" x="115.41" style="line-height:125%" font-weight="400" font-size="40" font-family="sans-serif" letter-spacing="0" word-spacing="0"><tspan style="line-height:125%;-inkscape-font-specification:'Crimson, Italic';text-align:start" y="351.109" x="115.41" font-style="italic" font-size="22.5" font-family="#dc143c" fill="#fff">Get in touch:</tspan></text><use transform="translate(115.62 361.646) scale(1.3587)" height="100%" width="100%" xlink:href="#a" fill="#fff"/><use transform="translate(219.16 360.955) scale(.32552)" height="100%" width="100%" xlink:href="#b" fill="#fff"/><use transform="translate(270.388 360.65) scale(.32552)" height="100%" width="100%" xlink:href="#c" fill="#fff"/><use transform="translate(163.767 358.566) scale(2.08333)" height="100%" width="100%" xlink:href="#d" fill="#fff"/><path d="M372.047 328.56v66.67" fill="none" stroke="#fff"/><text y="494.693" x="69.734" style="line-height:125%" font-weight="400" font-size="40" font-family="sans-serif" letter-spacing="0" word-spacing="0" fill="#606060"><tspan style="line-height:125%;-inkscape-font-specification:'Crimson, Italic';text-align:start" y="494.693" x="69.734" font-style="italic" font-size="22.5" font-family="#dc143c">Some of my past projects:</tspan></text></g></svg>