<?xml version="1.0" encoding="UTF-8" standalone="no"?>
<!-- Created with Inkscape (http://www.inkscape.org/) -->

<svg
   xmlns:dc="http://purl.org/dc/elements/1.1/"
   xmlns:cc="http://creativecommons.org/ns#"
   xmlns:rdf="http://www.w3.org/1999/02/22-rdf-syntax-ns#"
   xmlns:svg="http://www.w3.org/2000/svg"
   xmlns="http://www.w3.org/2000/svg"
   xmlns:sodipodi="http://sodipodi.sourceforge.net/DTD/sodipodi-0.dtd"
   xmlns:inkscape="http://www.inkscape.org/namespaces/inkscape"
   id="svg84668"
   version="1.1"
   inkscape:version="0.91 r13725"
   width="1155.0188"
   height="1840.7416"
   viewBox="0 0 1155.0188 1840.7416"
   sodipodi:docname="me.svg">
  <metadata
     id="metadata84674">
    <rdf:RDF>
      <cc:Work
         rdf:about="">
        <dc:format>image/svg+xml</dc:format>
        <dc:type
           rdf:resource="http://purl.org/dc/dcmitype/StillImage" />
        <dc:title></dc:title>
      </cc:Work>
    </rdf:RDF>
  </metadata>
  <defs
     id="defs84672" />
  <sodipodi:namedview
     pagecolor="#ffffff"
     bordercolor="#666666"
     borderopacity="1"
     objecttolerance="10"
     gridtolerance="10"
     guidetolerance="10"
     inkscape:pageopacity="0"
     inkscape:pageshadow="2"
     inkscape:window-width="2560"
     inkscape:window-height="1384"
     id="namedview84670"
     showgrid="false"
     fit-margin-top="0"
     fit-margin-left="0"
     fit-margin-right="0"
     fit-margin-bottom="0"
     inkscape:zoom="0.30004898"
     inkscape:cx="-501.67945"
     inkscape:cy="426.39293"
     inkscape:window-x="0"
     inkscape:window-y="30"
     inkscape:window-maximized="1"
     inkscape:current-layer="svg84668" />
  <path
     style="fill:#607d8b;fill-opacity:1"
     d="m 124.1683,1819.8791 c 45.2392,-26.9131 82.4655,-53.3231 82.8011,-58.7429 0.1412,-2.2729 0.7748,-7.2332 1.4087,-11.0229 2.616,-15.6397 8.96,-123.6572 9.6508,-164.317 0.7428,-43.7341 0.7428,-43.7341 -11.6363,-56.8461 -22.2788,-23.5978 -50.7432,-74.6282 -65.4171,-117.2788 -3.6165,-10.5112 -7.9575,-20.8304 -9.647,-22.9315 -4.5384,-5.6444 -30.1281,-99.1688 -36.395,-133.0161 -2.9822,-16.1064 -6.9022,-37.0362 -8.7112,-46.5105 -1.8088,-9.4744 -4.0744,-25.7531 -5.0345,-36.1749 -0.9599,-10.4218 -3.2206,-29.026 -5.0235,-41.3427 -1.8033,-12.3166 -4.1874,-30.1457 -5.2981,-39.62 -4.0664,-34.6806 -6.3668,-45.0525 -12.8138,-57.7731 -3.6196,-7.1419 -6.2662,-17.9944 -5.881,-24.1166 0.3852,-6.1222 -1.7312,-15.78241 -4.7031,-21.46702 -12.4365,-23.79037 -19.9068,-54.64042 -19.9509,-82.39307 -0.034,-18.05779 -2.4523,-35.53506 -6.8905,-49.69365 -8.6137,-27.47935 -8.6633,-42.10284 -0.1791,-52.88945 6.324,-8.03957 6.568,-13.07952 4.7378,-97.79218 -3.8276,-177.15382 -1.6798,-210.66774 16.1016,-251.24124 1.661,-3.78975 4.8757,-13.09185 7.1437,-20.67134 2.2683,-7.57949 7.8024,-22.64869 12.2984,-33.48712 4.496,-10.8384 8.1745,-25.27065 8.1745,-32.07162 0,-6.80101 1.3877,-11.50767 3.0842,-10.45928 1.6964,1.04838 4.0219,-0.53729 5.1678,-3.52367 2.8575,-7.44586 2.6676,-8.3115 -1.8218,-8.3115 -4.0819,0 -20.1997,17.10877 -20.2069,21.44937 0,1.37537 -3.2482,7.57677 -7.2133,13.78089 -7.2091,11.28025 -7.2091,11.28025 -5.3108,0.94458 1.8986,-10.33567 1.8986,-10.33567 -3.1362,0.86131 -5.8986,13.1171 -8.1996,14.25351 -6.9766,3.44522 1.3213,-11.67693 15.4749,-37.46322 25.9539,-47.28569 7.3924,-6.92886 9.0206,-11.15312 8.0015,-20.75747 -0.7038,-6.63205 -1.4721,-14.18329 -1.7074,-16.78051 -0.2343,-2.59725 -5.5957,-6.88152 -11.9122,-9.5206 -12.9251,-5.40059 -15.6375,-9.90822 -3.7322,-6.20281 7.7517,2.41265 7.7517,2.41265 0.8613,-5.73761 -4.7134,-5.57502 -5.0424,-6.72228 -1.0419,-3.63095 3.7994,2.93581 7.7821,3.4375 11.3658,1.43187 4.689,-2.62399 4.1987,-3.68815 -3.2647,-7.08876 -4.8302,-2.20067 -8.9544,-5.97243 -9.1653,-8.38164 -4.5756,-52.26992 -8.0453,-67.84778 -16.239,-72.91177 -4.043,-2.49875 -2.4513,-41.14386 2.3241,-56.42439 2.053,-6.5701 2.1764,-10.4333 0.2963,-9.2711 -1.7733,1.0958 -3.224,5.0017 -3.224,8.6796 0,3.6779 -1.3695,6.6871 -3.0432,6.6871 -1.674,0 -3.9379,3.42056 -5.0314,7.60127 -1.0932,4.18071 -2.8199,6.76914 -3.837,5.75207 C 5.5682,139.2982 36.6631,109.8171 52.8532,120.8186 c 19.2888,13.107 16.1057,18.9493 -5.482,10.0621 -4.5874,-1.8886 -6.0292,-0.7948 -6.0292,4.5736 0,3.8807 -1.5503,8.0139 -3.4452,9.185 -1.8949,1.1711 -3.3753,5.52607 -3.2898,9.6777 0.1343,6.51027 0.812,6.12695 4.929,-2.78725 4.6163,-9.99545 4.8509,-10.08175 7.1268,-2.62268 1.2941,4.24218 3.9906,6.70096 5.9923,5.46399 2.3007,-1.42195 2.7899,-0.0372 1.3309,3.76573 -1.2696,3.30814 -2.4881,10.92663 -2.708,16.93 -0.2204,6.00334 -1.1086,8.20208 -1.9751,4.88605 -2.1726,-8.31343 -11.4061,-7.61618 -11.4061,0.86131 0,3.78974 1.744,6.50286 3.8759,6.02914 2.1319,-0.47372 4.6583,1.29244 5.6147,3.9248 1.0563,2.90745 0.2273,3.85144 -2.1137,2.40497 -2.453,-1.5159 -3.1072,-0.43827 -1.8012,2.96565 1.1287,2.94073 3.6024,5.34678 5.4972,5.34678 1.8949,0 2.6201,2.15006 1.6117,4.7779 -1.3229,3.44777 0.2515,4.28703 5.6605,3.01464 7.3852,-1.73757 7.3945,-1.68633 0.6494,3.52401 -6.5204,5.03675 -6.561,5.60083 -0.8537,11.90711 3.295,3.64095 5.0569,7.55372 3.9155,8.69502 -1.141,1.1413 -0.9957,3.82141 0.3239,5.95572 1.6347,2.64538 4.0068,1.89587 7.4516,-2.35471 3.5741,-4.40988 4.6359,-4.7224 3.6272,-1.06746 -0.7842,2.84231 2.2194,9.55078 6.6751,14.90772 9.945,11.95627 13.7309,25.62674 8.5362,30.82148 -2.8791,2.87921 -3.8821,2.20973 -3.8821,-2.59156 0,-13.93335 -8.2075,-29.81596 -14.5505,-28.15719 -3.3718,0.8817 -5.2616,0.19741 -4.1997,-1.52086 1.0621,-1.71817 1.191,-3.12392 0.2859,-3.12392 -0.904,0 -4.0964,-0.94103 -7.0937,-2.09122 -3.5761,-1.37227 -5.4497,-0.18776 -5.4497,3.44522 0,3.04506 1.5504,5.53644 3.4453,5.53644 1.8948,0 3.4452,1.64186 3.4452,3.64856 0,2.00671 -1.9379,2.51536 -4.3065,1.13038 -2.3686,-1.38498 -1.386,0.81249 2.1832,4.88326 5.583,6.3676 12.459,7.46552 12.459,1.98944 0,-0.94743 -1.4432,-0.83067 -3.2072,0.25943 -1.7639,1.09021 -3.9892,0.71681 -4.9449,-0.82971 -0.9557,-1.54653 1.4249,-4.78697 5.2905,-7.20097 3.8652,-2.41403 6.0763,-2.84934 4.9132,-0.96731 -1.1631,1.88198 0.2239,5.76158 3.0845,8.62129 5.4924,5.49227 7.1192,10.72987 2.4334,7.83382 -3.1083,-1.92096 -2.4606,17.896 0.6876,21.04431 1.1104,1.1103 0.2929,4.09934 -1.8184,6.64226 -3.0049,3.62089 -2.2514,4.62352 3.4752,4.62352 4.0216,0 7.3122,1.55035 7.3122,3.44522 0,1.89488 -2.7707,3.44523 -6.1577,3.44523 -4.4577,0 -6.3898,3.04895 -6.9993,11.04597 -0.4627,6.07527 -3.5055,14.04666 -6.7616,17.71413 -5.7563,6.48329 -5.6815,6.53524 2.6925,1.87362 4.7371,-2.63701 9.5253,-6.0307 10.6398,-7.54153 3.3102,-4.4863 9.2767,5.47374 9.2215,15.39319 -0.034,6.0434 -1.5634,8.62067 -4.4577,7.51 -2.9512,-1.13241 -5.5841,3.7946 -7.9706,14.91558 -2.1901,10.20509 -2.3176,17.04924 -0.3307,17.75495 5.7745,2.05095 3.4135,7.46467 -3.2554,7.46467 -4.1646,0 -7.0717,3.04812 -8.1156,8.5088 -0.9691,5.06961 -0.2549,7.66083 1.7681,6.41087 1.867,-1.15384 2.6118,0.0558 1.6555,2.68817 -0.9564,2.63236 -3.2599,4.4729 -5.119,4.09007 -2.8726,-0.59155 -10.9182,19.34172 -11.0726,27.43262 -0.034,1.441 -2.2356,6.86723 -4.9073,12.05829 -2.6718,5.19105 -6.5363,20.29071 -8.5886,33.55482 -2.052,13.2641 -4.7779,29.33242 -6.0574,35.70739 -2.1898,10.91078 -1.8615,11.44331 5.5947,9.07679 6.8163,-2.16343 7.5295,-1.61771 5.1134,3.91267 -2.7032,6.1882 -3.0029,10.08944 -2.2139,28.82067 0.1998,4.73718 -0.3067,18.69033 -1.1256,31.007 -0.8186,12.31668 -1.8745,38.67263 -2.3465,58.5688 -0.5557,23.41401 -1.7237,32.5289 -3.3109,25.83917 -1.3488,-5.68462 -2.3934,16.79546 -2.3214,49.95574 0.1068,49.10014 -0.9012,62.20991 -5.4296,70.62707 -5.7398,10.66803 -7.5778,26.15093 -3.0194,25.43119 13.3643,-2.11016 14.6446,0.14711 14.4,25.38585 -0.1757,18.03547 -1.1225,23.06274 -3.4091,18.08742 -2.3441,-5.10034 -2.7627,-3.3102 -1.6106,6.89045 0.8561,7.57949 1.7694,19.20712 2.0299,25.83917 0.4079,10.3879 0.7951,10.90906 2.7944,3.76226 1.6806,-6.00699 3.469,-0.42073 6.4812,20.24582 2.2879,15.69805 3.3105,29.91618 2.2724,31.59586 -1.038,1.67969 1.3171,11.61902 5.234,22.0874 3.9165,10.46834 7.1213,22.9362 7.1213,27.7062 0,4.7701 2.956,15.1768 6.5693,23.126 6.3269,13.9203 19.4346,93.8605 22.989,140.2039 0.9447,12.3166 3.1103,27.045 4.8126,32.7296 1.7023,5.6846 4.7258,21.3758 6.7185,34.8694 1.9928,13.4936 9.2798,43.7254 16.1929,67.1819 6.9136,23.4564 13.3372,46.2637 14.2746,50.6828 0.9371,4.4192 3.9548,8.8984 6.7051,9.9538 2.7507,1.0555 3.5445,2.8661 1.7643,4.0235 -3.5038,2.2781 18.3138,59.9473 23.3638,61.7572 1.6637,0.5962 2.3025,2.9662 1.4194,5.2667 -0.8826,2.3005 0.87,7.239 3.8945,10.9744 3.0246,3.7354 4.3696,4.6141 2.9888,1.9527 -1.6648,-3.2088 -1.1514,-3.999 1.5234,-2.3458 2.2184,1.3711 3.1745,3.883 2.1247,5.582 -2.2363,3.6182 11.0616,31.0302 14.7762,30.4591 7.0899,-1.09 11.2852,0.8465 9.187,4.241 -1.6426,2.6581 -3.2536,2.3972 -5.3183,-0.8613 -1.6289,-2.5709 -2.9857,-3.0814 -3.0146,-1.1344 -0.069,4.6253 9.2504,17.9736 21.5815,30.9123 11.1243,11.6723 17.3667,24.8842 14.8531,31.4352 -0.9306,2.4243 -1.9569,19.8057 -2.2811,38.6255 -3.018,175.1659 -5.2009,180.4479 -94.8597,229.5545 -46.7744,25.6183 -49.4741,24.1921 -4.6659,-2.4647 z m 945.5735,6.9423 c -40.7763,-28.7808 -115.415,-112.0096 -115.415,-128.6979 0,-1.0147 -4.0888,-10.1951 -9.0861,-20.4009 -8.7701,-17.911 0.1378,-215.685 12.4142,-275.5768 4.7248,-23.0533 4.178,1.7565 -1.5569,70.627 -18.1174,217.5729 -7.9054,252.9528 96.4607,334.1867 42.8314,33.3382 53.1123,45.2216 17.1831,19.8619 z M 377.049,1281.6725 c -3.6781,-2.782 -10.1758,-5.1075 -14.4393,-5.1678 -4.2634,-0.06 -7.7517,-1.4702 -7.7517,-3.1333 0,-3.3306 17.7232,-2.6502 23.4688,0.9009 1.9893,1.2294 4.3903,0.9838 5.3357,-0.5458 0.9453,-1.5295 7.6411,-3.1511 14.8802,-3.6034 7.2388,-0.4524 21.1513,-4.1006 30.9164,-8.1071 11.597,-4.7581 19.9613,-6.3048 24.1166,-4.4596 5.6994,2.5308 5.4965,2.9737 -1.9486,4.2542 -6.4157,1.1034 -7.2012,2.1314 -3.4453,4.5089 4.0964,2.593 4.1085,3.088 0.076,3.1324 -2.6335,0.028 -6.9772,2.7659 -9.6528,6.0819 -4.4836,5.5566 -4.6975,5.4217 -2.7314,-1.7226 2.6336,-9.5708 -2.115,-10.0047 -10.316,-0.9425 -3.3894,3.745 -7.5054,5.979 -9.1471,4.9645 -1.6416,-1.0146 -3.0083,0.1846 -3.0376,2.6651 -0.045,3.6769 -0.5867,3.6674 -2.9443,-0.051 -2.3565,-3.7164 -3.8659,-3.5873 -8.1504,0.6972 -6.1835,6.1836 -9.9525,3.8821 -6.9187,-4.2247 1.8474,-4.9368 1.3637,-5.0689 -3.6447,-0.9954 -3.1761,2.5833 -4.9253,6.0716 -3.8869,7.7518 2.946,4.7668 -3.3842,3.5904 -10.7797,-2.0035 z m 154.7323,-7.2936 c 0.278,-3.1834 -2.0999,-6.2046 -5.2851,-6.7138 -4.1029,-0.6561 -5.1699,0.732 -3.6612,4.7634 1.8811,5.0265 1.4246,5.1159 -3.9169,0.7674 -5.6887,-4.6311 -5.5743,-5.1837 1.9387,-9.3523 7.4527,-4.1351 7.5257,-4.466 1.0945,-4.9639 -16.2876,-1.261 -48.7141,1.2552 -54.2623,4.2106 -3.9037,2.0794 -6.0291,1.9706 -6.0291,-0.3087 0,-15.392 69.0835,-16.6842 93.2567,-1.7444 2.331,1.4406 16.4498,3.0933 31.375,3.6727 14.9253,0.5793 29.0347,2.2379 31.3541,3.6856 6.4896,4.0509 16.2754,4.8773 16.2754,1.3746 0,-1.7251 -1.938,-3.9185 -4.3066,-4.8742 -3.373,-1.3611 -3.3496,-1.7967 0.1082,-2.0097 4.2997,-0.265 9.883,8.9727 7.1033,11.7524 -3.8275,3.8275 -24.8704,4.9713 -28.9636,1.5743 -2.5555,-2.121 -5.9659,-3.0408 -7.5786,-2.0441 -1.6126,0.9966 -12.1454,0.5489 -23.4061,-0.995 -14.1671,-1.9424 -21.3509,-1.6133 -23.3203,1.0684 -2.0763,2.8272 -3.3108,2.7347 -4.5639,-0.3418 -1.2987,-3.1887 -3.669,-2.9387 -9.7178,1.0246 -7.2823,4.7715 -7.9547,4.7225 -7.4944,-0.5461 z m -274.6354,-44.4943 c 1.0908,-2.8423 3.406,-5.1678 5.1448,-5.1678 1.7391,0 4.671,-3.9692 6.5156,-8.8204 1.8442,-4.8512 4.66,-8.0128 6.2572,-7.0257 1.5972,0.987 6.3826,-2.9109 10.6347,-8.6621 4.7341,-6.4031 9.6908,-9.7046 12.7866,-8.5166 2.7807,1.067 8.899,-0.578 13.5959,-3.6556 4.6972,-3.0776 9.6546,-4.441 11.0165,-3.0298 2.967,3.0744 -11.2263,13.1724 -20.5046,14.5884 -9.2312,1.4087 -24.0019,12.9584 -32.1426,25.1329 -7.0882,10.6003 -16.844,14.3817 -13.3041,5.1567 z m 132.1643,-35.8233 c 0,-1.6664 -5.4262,-4.0479 -12.0583,-5.2921 -6.632,-1.2441 -12.0582,-3.7422 -12.0582,-5.5512 0,-4.243 0.5171,-4.1876 14.0499,1.5024 10.4752,4.4046 12.4028,4.1558 23.8665,-3.0808 7.7999,-4.9239 18.8415,-8.1754 29.4811,-8.6814 23.5074,-1.118 25.6235,-0.6678 25.6235,5.4514 0,3.4151 -1.5659,4.4034 -4.3,2.7137 -10.7753,-6.6597 -31.972,-4.0556 -48.2397,5.9264 -9.0006,5.5229 -16.3648,8.6781 -16.3648,7.0116 z m 583.6556,-39.9716 c 2.9257,-53.284 8.5194,-81.5023 16.5736,-83.6085 3.3288,-0.8706 5.2033,-2.9569 4.1653,-4.6364 -1.0377,-1.6794 0.4386,-3.0535 3.2809,-3.0535 6.8973,0 10.1744,5.7768 4.7344,8.3458 -5.5616,2.6264 32.9208,-0.7616 40.1472,-3.5346 2.9925,-1.1484 4.5942,-3.4581 3.5592,-5.1328 -1.0349,-1.6746 0.2412,-2.2306 2.8327,-1.2356 5.2319,2.0076 27.5714,-14.2038 39.5529,-28.703 4.7296,-5.7234 7.7414,-7.4278 7.7517,-4.3871 0.069,19.7586 -58.0637,53.7021 -87.9055,51.3286 -19.1775,-1.5252 -20.4509,1.6654 -26.347,66.004 -5.2399,57.1783 -11.3586,63.4934 -8.3454,8.6131 z m -20.4574,-16.3648 c 8.0777,-52.9825 12.5923,-74.9845 17.1986,-83.8171 2.8867,-5.5359 5.2581,-12.0032 5.2698,-14.3718 0,-2.3686 1.4635,-4.3065 3.2261,-4.3065 1.9669,0 1.9841,4.2565 0.045,11.0208 -2.1171,7.382 -1.9424,11.7739 0.5292,13.3015 2.34,1.446 1.6933,3.0468 -1.7664,4.3745 -3.0011,1.1517 -5.4331,4.0805 -5.4042,6.5086 0.038,3.1371 1.1287,2.9192 3.7705,-0.7532 3.0917,-4.2979 3.3725,-4.1055 1.6699,1.1431 -1.1263,3.471 -2.1567,8.8972 -2.2901,12.0583 -0.1963,4.6592 -0.8602,4.4428 -3.5082,-1.1431 -2.4516,-5.1721 -2.8451,-3.4537 -1.5779,6.8905 1.1703,9.556 0.678,12.1965 -1.6069,8.613 -2.6542,-4.163 -3.305,-3.6606 -3.3477,2.5839 -0.035,4.2635 1.8852,7.7755 4.2538,7.8045 2.8713,0.035 2.5839,1.166 -0.8613,3.3925 -2.8423,1.8369 -3.541,3.3635 -1.5531,3.3925 2.1829,0.031 2.9308,5.1702 1.888,12.9723 -1.7264,12.9196 -1.7264,12.9196 -4.0223,0.8613 -2.2604,-11.8728 -2.3035,-11.8993 -2.7965,-1.7226 -0.7183,14.831 -4.127,25.8392 -8.0015,25.8392 -1.99,0 -2.4417,-5.9341 -1.1139,-14.6422 z m -629.5187,-89.1994 c 13.7974,-13.8995 -13.2841,-62.24457 -29.3564,-52.40612 -5.2743,3.22863 -7.2061,2.76256 -10.5155,-2.53716 -5.8287,-9.33318 -5.3126,-10.03108 7.4189,-10.03108 32.0885,0 60.6545,56.94486 33.7091,67.19646 -4.4581,1.696 -4.7076,1.2547 -1.2561,-2.2221 z m 61.2822,-31.5635 c -20.2258,-30.86856 4.7579,-57.6068 40.9644,-43.8411 12.4965,4.7511 48.0516,40.0043 45.1242,44.7409 -1.5214,2.4617 -9.4572,-3.1057 -21.6047,-15.1567 -19.553,-19.39757 -30.9853,-24.31907 -51.1498,-22.01921 -11.9047,1.35776 -17.5355,28.41971 -6.7727,32.54981 5.8445,2.2427 7.461,11.6581 2.0017,11.6581 -1.8514,0 -5.7046,-3.5693 -8.5631,-7.9318 z m 714.7543,-0.9077 c 0,-1.072 1.6048,-4.9479 3.5665,-8.6131 3.6826,-6.8809 -1.1924,-9.84754 -5.2891,-3.2187 -6.1849,10.0075 -26.6526,-4.75863 -23.4692,-16.93171 1.0222,-3.90905 3.3146,-6.20757 5.0941,-5.10778 1.7794,1.09975 2.5877,3.79543 1.7963,5.99038 -0.7914,2.19495 -0.034,6.74602 1.7119,10.11352 7.0131,13.62679 27.2245,-7.96005 35.5706,-37.99102 1.1852,-4.26347 3.458,-7.75176 5.0507,-7.75176 1.5931,0 0.5285,8.13934 -2.3658,18.08742 -7.604,26.13698 -21.666,55.61795 -21.666,45.42275 z m 26.5058,-75.56845 c 1.1569,-5.68462 5.0583,-20.41295 8.6692,-32.72962 13.9852,-47.6978 17.7471,-84.94256 9.5743,-94.7899 -2.1867,-2.63481 -3.2523,-7.57815 -2.3682,-10.9852 1.232,-4.74752 1.7009,-4.33626 2.0071,1.76044 0.2205,4.37529 1.8026,7.0881 3.5169,6.02848 5.3577,-3.3112 -0.3476,-30.12861 -9.6883,-45.53899 -8.9024,-14.68767 -16.9033,-20.3818 -12.542,-8.92595 1.8401,4.83416 1.4353,5.17558 -2.0433,1.72261 -13.0058,-12.91053 -55.4502,21.38884 -64.4932,52.1173 -5.2747,17.92367 -11.6611,22.09422 -7.2412,4.72888 5.4076,-21.24659 7.5743,-26.70048 10.6071,-26.70048 1.6741,0 3.0436,-3.1007 3.0436,-6.89044 0,-4.53512 2.2969,-6.89045 6.7192,-6.89045 3.6957,0 7.9591,-2.19492 9.4743,-4.87754 11.7696,-20.83664 38.8725,-30.62121 51.6274,-18.63849 9.7713,9.17949 10.2981,4.6998 1.0835,-9.21359 -9.9346,-15.00067 -8.4484,-18.952 1.8715,-4.97587 28.6057,38.73992 25.6317,132.23676 -6.4591,203.0762 -5.2326,11.55145 -5.3739,11.62387 -3.3588,1.72261 z m -85.6489,-2.29682 c -4.9157,-4.91572 -6.3162,-11.63704 -6.3162,-30.3129 0,-21.43704 -1.0473,-25.20384 -9.8175,-35.31354 -10.9761,-12.65272 -17.6195,-31.94549 -10.1427,-29.456 2.4513,0.8162 5.0111,4.45622 5.6888,8.08897 2.7958,14.98885 14.2714,18.75117 14.2714,4.67899 0,-3.84515 2.3528,-6.68711 5.5365,-6.68711 3.6967,0 4.822,-1.86166 3.3867,-5.60252 -1.8939,-4.93466 -1.0136,-4.87044 7.3831,0.53863 11.4378,7.36823 27.0505,22.29 23.3221,22.29 -8.0053,0 -29.2958,-8.5283 -29.314,-11.74232 0,-2.06865 -2.3173,0.64126 -5.1238,6.02205 -3.6209,6.94298 -4.115,11.62818 -1.7012,16.13832 1.8707,3.49528 3.4011,14.10784 3.4011,23.58341 0,24.98848 4.9608,36.07518 15.2606,34.1062 7.0045,-1.33896 7.7015,-0.70652 4.6349,4.20403 -4.711,7.54328 -12.5968,7.33674 -20.4698,-0.53621 z M 258.3917,919.85076 c 0,-4.3352 19.0022,-49.23896 24.0715,-56.88243 6.856,-10.3378 17.2006,-32.41138 20.8942,-44.58484 2.4658,-8.12545 2.6935,-7.87147 2.9088,3.24216 0.2102,10.789 -2.6414,17.4543 -22.838,53.40096 -7.3039,12.99979 -18.146,38.35147 -18.146,42.43041 0,2.24408 -1.5504,4.0801 -3.4452,4.0801 -1.8949,0 -3.4453,-0.75887 -3.4453,-1.68636 z m 867.0128,-18.12367 c -0.8747,-1.42115 -6.5455,-22.73847 -12.6022,-47.37182 -13.5549,-55.13084 -14.9826,-58.15788 -25.1178,-53.25023 -7.2859,3.52805 -7.2642,3.38483 0.5165,-3.39334 4.8839,-4.25495 7.3038,-9.21218 6.0684,-12.43174 -1.1959,-3.11641 -0.6091,-4.46149 1.4032,-3.21773 5.8211,3.59771 13.7668,25.83479 22.138,61.95737 11.1997,48.32622 13.7506,67.71235 7.5939,57.70749 z M 311.5681,794.42693 c 0.7121,-11.32414 3.7091,-24.95293 6.6599,-30.28624 12.2085,-22.06558 21.9103,-70.62797 13.0113,-65.12805 -1.6214,1.00194 -2.307,-1.6197 -1.5242,-5.8258 0.8534,-4.58411 -2.0899,-12.3789 -7.3476,-19.45907 -4.8244,-6.49635 -8.0298,-12.55319 -7.1234,-13.45959 2.432,-2.43195 18.0513,15.31312 20.63,23.43751 1.222,3.85083 3.3219,7.00148 4.6659,7.00148 5.7814,0 -2.2894,50.78807 -11.0692,69.65628 -5.0417,10.83533 -10.1358,26.76873 -11.3196,35.40763 -3.2037,23.37184 -8.0749,22.37721 -6.5831,-1.34415 z M 175.2389,775.22174 c -0.8889,-0.8888 -6.5735,-1.99375 -12.6326,-2.45545 -6.0591,-0.46166 -11.0164,-2.64534 -11.0164,-4.85256 0,-2.20725 -2.4989,-6.08713 -5.5534,-8.62195 -3.0542,-2.53482 -6.8319,-7.76329 -8.3946,-11.61881 -2.2515,-5.5549 -2.8868,-4.30511 -3.0597,6.02053 -0.1757,10.40485 1.3436,13.65848 7.5333,16.14645 7.5757,3.04503 7.5461,3.12079 -1.3009,3.33419 -4.9787,0.12023 -10.9682,-2.09008 -13.31,-4.91151 -2.3413,-2.82143 -5.7466,-4.20955 -7.5664,-3.08472 -1.9555,1.20852 -1.881,-0.56884 0.1826,-4.34446 1.9204,-3.5143 4.3624,-10.54469 5.4273,-15.62309 3.9751,-18.95985 19.1517,-25.10761 19.1517,-7.75799 0,10.03969 16.7555,28.6912 27.661,30.79148 4.2479,0.81803 8.4349,2.19867 9.3041,3.06801 2.1984,2.19836 30.8558,-30.51104 33.4442,-38.17287 3.4903,-10.33291 18.9804,-19.94488 23.7741,-14.75255 3.0473,3.30063 3.038,3.79588 -0.038,2.07006 -4.5553,-2.55601 -18.351,14.85808 -18.351,23.16434 0,2.93674 -6.9266,10.62834 -15.3922,17.09248 -8.466,6.46413 -14.409,12.73657 -13.2069,13.93871 1.2024,1.20215 -1.6899,2.18572 -6.4271,2.18572 -4.7372,0 -9.3403,-0.72722 -10.2292,-1.61601 z m 439.7334,-26.17388 c -6.2974,-2.49762 -2.2485,-4.93211 6.0292,-3.6251 7.0033,1.10578 1.1285,-5.52838 -10.3169,-11.6503 -14.8516,-7.94386 -31.6704,-36.17484 -21.5514,-36.17484 1.8948,0 3.4452,2.13859 3.4452,4.75241 0,13.12192 27.0543,33.14504 44.7841,33.14504 9.4764,0 17.2299,-1.47989 17.2299,-3.28863 0,-1.80875 4.0153,-7.30391 8.9229,-12.21149 5.1707,-5.17073 8.0848,-11.10678 6.9299,-14.11643 -1.0962,-2.85643 -0.572,-4.31535 1.1647,-3.24199 5.0557,3.12458 7.5915,-10.18573 3.8269,-20.08737 -1.8963,-4.98744 -2.3234,-9.18672 -0.9491,-9.3317 1.3743,-0.14504 5.2056,-0.78206 8.5141,-1.41574 3.3085,-0.63372 6.8883,0.26011 7.9551,1.9862 1.0668,1.72609 5.724,3.13836 10.3493,3.13836 5.3201,0 8.4098,1.97336 8.4098,5.37117 0,2.95414 1.3877,4.51338 3.0841,3.465 1.6965,-1.04838 3.9734,0.41047 5.0597,3.24189 1.0866,2.83142 4.2951,5.14806 7.1302,5.14806 2.8351,0 6.7161,2.91734 8.6244,6.48298 2.4627,4.6013 7.409,6.53734 17.0415,6.67026 12.3218,0.17019 27.9645,6.35612 27.9645,11.05889 0,3.31024 -13.5673,3.03714 -15.6389,-0.31489 -2.6555,-4.29689 -17.8452,-4.13475 -20.5359,0.21911 -1.171,1.89487 -4.751,3.42149 -7.955,3.39248 -5.0307,-0.0455 -5.1207,-0.5192 -0.6581,-3.47058 5.5892,-3.69659 -7.1006,-16.9073 -16.3985,-17.07139 -2.3872,-0.042 -6.9952,-3.17732 -10.2399,-6.96707 -3.2451,-3.78975 -7.3712,-6.89045 -9.1695,-6.89045 -1.7983,0 -5.788,-2.27918 -8.8662,-5.06485 -5.0746,-4.59252 -5.4717,-3.99564 -4.258,6.40088 0.8259,7.07473 -1.3662,16.76752 -5.7241,25.3096 -3.8844,7.61412 -5.9662,15.05956 -4.6262,16.54541 1.3399,1.48586 0.6044,1.65192 -1.6346,0.36899 -2.2389,-1.28294 -6.2581,0.79019 -8.9314,4.60695 -3.2297,4.61109 -10.5339,7.69821 -21.7684,9.2005 -9.2992,1.24349 -17.6829,3.36123 -18.6303,4.70611 -0.9474,1.34484 -4.8233,1.2154 -8.6131,-0.28768 z m 419.6809,-16.29474 c 3.9011,-4.31069 5.1227,-10.31885 4.0275,-19.81003 -1.2182,-10.56057 -0.9168,-11.68671 1.3405,-5.0098 2.0851,6.16795 3.0242,0.49136 3.3085,-19.99618 0.217,-15.73509 1.2747,-30.03029 2.3479,-31.76713 1.0735,-1.73684 -0.565,-8.02513 -3.6413,-13.97396 -3.0762,-5.9488 -4.0092,-9.83701 -2.073,-8.64041 6.3551,3.92762 2.1068,-50.2861 -4.3079,-54.9767 -5.9371,-4.34119 -7.802,-10.26315 -2.1281,-6.75633 3.9789,2.45896 0.7552,-8.01365 -4.5801,-14.8804 -2.516,-3.23785 -2.2097,-5.39766 1.0512,-7.41298 3.6626,-2.26365 3.0903,-4.76512 -2.8055,-12.26031 -4.0736,-5.17903 -7.4068,-11.05403 -7.4068,-13.05553 0,-2.00151 2.2762,-0.62965 5.0582,3.04854 2.782,3.67819 5.1076,4.87647 5.1679,2.66288 0.1722,-6.38183 -3.8411,-15.01828 -6.2807,-13.51058 -1.2227,0.7556 -2.4233,-3.51675 -2.668,-9.49414 -0.893,-21.80017 -4.1139,-31.35808 -12.9385,-38.39446 -10.2323,-8.15909 -11.7847,-15.53882 -3.2681,-15.53882 3.1579,0 4.7216,1.02013 3.4748,2.26692 -2.6325,2.63263 3.9321,11.51397 8.5104,11.51397 1.7064,0 0.82,-3.48829 -1.9703,-7.75175 -2.7903,-4.26347 -6.1687,-14.72833 -7.5078,-23.25526 -1.3392,-8.52693 -5.2382,-22.09249 -8.6648,-30.1457 -3.4266,-8.05321 -5.431,-14.6422 -4.4547,-14.6422 0.9768,0 -1.9813,-5.03864 -6.5731,-11.19698 -4.5918,-6.15833 -7.7318,-12.86587 -6.9779,-14.90565 0.7538,-2.03978 -2.1571,-7.6043 -6.4688,-12.3656 -4.3117,-4.76129 -10.7749,-13.94485 -14.3624,-20.40788 -3.5879,-6.46303 -10.1493,-15.00839 -14.5813,-18.98969 -4.4319,-3.9813 -7.052,-8.24476 -5.8224,-9.47436 1.2296,-1.2296 0.2618,-2.23564 -2.1522,-2.23564 -2.8292,0 -3.5052,2.142 -1.9028,6.02914 5.1086,12.39212 4.9277,31.56975 -0.2791,29.5719 -2.6814,-1.02895 -4.0336,-3.23234 -3.0053,-4.89642 2.4479,-3.96063 -2.0033,-27.59824 -4.8712,-25.86846 -1.2134,0.73187 -2.6827,-9.71026 -3.2657,-23.20465 -0.6087,-14.09592 -2.8075,-25.66908 -5.1678,-27.19996 -3.0966,-2.0086 -2.9391,-3.41811 0.6398,-5.72472 2.6111,-1.683 3.6667,-4.80929 2.3455,-6.94726 -1.3216,-2.138 -3.1514,-8.01652 -4.0664,-13.06336 -2.4444,-13.47926 -11.6401,-22.31023 -11.6401,-11.17823 0,2.0067 1.7898,2.54233 3.9776,1.19029 2.4643,-1.52307 3.0421,-0.9451 1.5193,1.51927 -3.85,6.22917 -8.2613,4.69164 -10.8287,-3.7742 -3.6151,-11.92061 -16.0403,-24.25079 -19.2326,-19.08537 -1.4425,2.334 -3.4197,3.44664 -4.394,2.47257 -0.974,-0.9741 2.2821,-6.35541 7.2356,-11.95851 4.9536,-5.6031 8.1087,-7.65236 7.0114,-4.55386 -1.2358,3.4898 1.5831,9.06163 7.4079,14.6422 9.7031,9.29593 17.9803,12.55453 11.2301,4.42091 -4.4354,-5.34427 4.8061,-5.82925 13.1239,-0.6887 2.679,1.65574 0.6325,-2.54644 -4.5477,-9.33818 -9.04,-11.8517 -19.3932,-19.07396 -19.3932,-13.52815 0,1.45644 1.9379,4.60034 4.3065,6.98647 3.4528,3.4785 3.1114,3.88342 -1.7226,2.04305 -3.316,-1.26243 -6.0291,-3.67981 -6.0291,-5.37196 0,-8.77251 -12.8128,-15.89551 -20.8526,-11.59266 -6.0474,3.23634 -9.577,3.33824 -14.2632,0.41177 -6.2155,-3.8817 -8.5362,-9.45483 -3.643,-8.74925 8.7185,1.25727 18.0054,-4.93308 14.2284,-9.48425 -2.2025,-2.65365 -6.6699,-3.97875 -9.9281,-2.94467 -3.3084,1.05007 -9.5584,-1.23917 -14.156,-5.18495 -6.1032,-5.23826 -6.7313,-6.81786 -2.4286,-6.10886 3.1917,0.5259 5.8032,-0.5942 5.8032,-2.489 0,-1.8949 -2.3793,-2.954 -5.2878,-2.3535 -3.039,0.6274 -4.3217,-0.4713 -3.0159,-2.584 3.5052,-5.671 -7.07,-4.3467 -11.9157,1.4922 -2.3589,2.8423 -5.8899,5.1679 -7.8465,5.1679 -1.9565,0 -0.6039,-3.3068 3.006,-7.3483 6.5339,-7.3158 6.5249,-7.3368 -2.0499,-4.7399 -13.3689,4.0488 -13.1625,4.8862 5.1678,20.95865 10.6458,9.3347 15.0815,15.13142 11.6121,15.17521 -7.9663,0.1006 -34.9459,-26.96326 -32.7037,-32.80626 1.9524,-5.0874 -2.9199,-9.4816 -11.5777,-10.4418 -2.8754,-0.3191 -8.1958,-1.8186 -11.8226,-3.3325 -4.6308,-1.933 -5.8597,-1.5642 -4.1274,1.2386 1.5634,2.5298 0.6715,3.3024 -2.4358,2.1101 -6.5259,-2.5044 -8.305,3.7944 -6.5711,23.26493 1.4071,15.79584 1.7909,16.26414 18.1571,22.14931 15.7116,5.64982 20.7574,14.33692 6.1011,10.50424 -6.3609,-1.66349 -6.4319,-1.33268 -1.2244,5.729 3.0397,4.12193 8.7312,12.53306 12.6481,18.6914 7.3242,11.51621 11.6031,13.27772 19.7359,8.12477 3.6444,-2.30903 1.919,-6.02515 -7.7824,-16.76353 -11.2438,-12.44552 -11.8119,-13.96749 -5.801,-15.53933 4.4746,-1.17021 6.1049,-0.28768 4.9635,2.68689 -0.935,2.43619 -0.045,5.45289 1.9803,6.70385 2.0241,1.25093 3.6802,0.54108 3.6802,-1.57746 0,-2.11854 1.5755,-2.87807 3.5014,-1.68788 1.9258,1.19018 2.7692,3.34882 1.8742,4.79695 -0.8951,1.44813 0.5619,2.63298 3.2374,2.63298 2.6756,0 3.8601,-1.67955 2.6322,-3.73235 -1.2275,-2.05277 0.2515,-1.7191 3.2902,0.74152 6.8233,5.52772 9.8506,1.25054 7.6608,-10.82452 -1.9125,-10.54672 1.9648,-11.80939 9.5918,-3.12368 7.0827,8.06579 11.0489,21.53265 6.3417,21.53265 -2.0227,0 -3.6775,-2.13569 -3.6775,-4.746 0,-2.61028 -2.7131,-6.79898 -6.0291,-9.3082 -5.1293,-3.88122 -5.3863,-3.84132 -1.7226,0.26735 2.3686,2.65616 4.2827,7.23245 4.2538,10.1695 -0.041,4.23945 -0.6532,4.39294 -2.966,0.74469 -2.359,-3.7216 -3.2992,-3.58917 -4.9436,0.69652 -1.2292,3.20354 -4.9383,4.73187 -9.3992,3.87284 -6.1256,-1.17971 -6.6645,-0.5708 -3.1948,3.61001 4.9653,5.98284 8.2193,6.70716 4.7238,1.05155 -1.5352,-2.48414 -0.9437,-3.04151 1.5755,-1.48455 2.2184,1.37113 3.2078,3.82909 2.1987,5.4621 -1.0091,1.633 -0.2343,3.95852 1.7226,5.16783 1.9566,1.20931 2.6084,3.73473 1.4481,5.61206 -1.2124,1.96161 -4.0682,0.7614 -6.7148,-2.82198 -3.6902,-4.99637 -5.4727,-5.37961 -8.9713,-1.92877 -8.0391,7.92932 -25.544,5.30412 -30.0114,-4.50081 -2.3972,-5.26082 -5.6088,-7.82107 -7.976,-6.35812 -2.5233,1.55944 -3.0211,0.92538 -1.3705,-1.74542 2.5942,-4.19759 -6.8367,-17.54149 -12.3973,-17.54149 -1.601,0 -2.9112,4.65105 -2.9112,10.33567 0,6.47285 -1.7705,10.33567 -4.7372,10.33567 -2.7931,0 -4.7372,3.64098 -4.7372,8.87144 0,4.8793 -1.9424,10.69312 -4.3165,12.91959 -3.4366,3.22328 -3.8425,0.91013 -1.9914,-11.35211 1.2789,-8.47015 3.426,-16.2219 4.7717,-17.22612 5.8796,-4.38845 -0.7997,-60.43629 -7.0769,-59.38229 -3.316,0.5568 -6.0291,-0.606 -6.0291,-2.5839 0,-1.978 2.1598,-3.5963 4.7992,-3.5963 2.6397,0 5.7005,-2.3488 6.8022,-5.2195 1.1015,-2.8708 6.012,-6.7438 10.9114,-8.6067 4.8998,-1.8628 8.015,-4.8331 6.9228,-6.6006 -1.0924,-1.7675 -0.4106,-4.1875 1.5153,-5.3776 1.9258,-1.1902 3.5013,0.4211 3.5013,3.5806 0,4.4231 2.0021,5.2422 8.7027,3.5605 6.8012,-1.7071 10.5003,-0.095 16.9329,7.3782 4.5267,5.2594 9.525,8.2607 11.1074,6.6697 3.0669,-3.0836 -15.149,-19.4553 -21.6791,-19.484 -2.1364,-0.01 -5.7449,-2.2587 -8.0184,-4.9983 -3.068,-3.696496 -6.3371,-4.143396 -12.677,-1.732996 -5.6157,2.135096 -7.8159,2.071196 -6.4202,-0.1867 1.1676,-1.8892 -0.2033,-3.4348 -3.0452,-3.4348 -2.8423,0 -6.2741,1.7899 -7.626,3.9775 -1.6448,2.661496 -0.8572,3.070796 2.3806,1.2373 2.6614,-1.5072 2.1009,0.160896 -1.2461,3.706896 -4.7482,5.031 -7.4007,5.6252 -12.0766,2.7052 -4.3186,-2.6972 -7.6663,-2.6854 -11.9904,0.042 -4.4354,2.7976 -7.7862,2.668 -12.8548,-0.4973 -3.7704,-2.3549 -9.2022,-4.2816 -12.07,-4.2816 -2.8681,0 -5.2147,-2.180296 -5.2147,-4.845196 0,-3.0925 2.4082,-4.2156 6.6569,-3.1045 7.3404,1.9195 6.3764,-11.8668 -1.1869,-16.9754 -2.3214,-1.568 -1.5624,-2.5512 1.9948,-2.5839 3.1579,-0.028 6.4339,1.8852 7.2801,4.2538 0.8458,2.3686 2.6807,3.2469 4.0771,1.9518 4.3327,-4.0176 -1.5996,-9.7036 -10.1235,-9.7036 -5.6312,0 -9.465,3.0366 -12.5054,9.9051 -4.321,9.762 -17.9255,13.9659 -22.2984,6.8904 -1.0247,-1.658 1.9234,-3.0146 6.5514,-3.0146 5.5172,0 9.0351,-2.3726 10.2165,-6.8904 2.2846,-8.7365 -16.1206,-9.8623 -25.3078,-1.548 -5.5677,5.0387 -5.5341,6.1067 0.59,18.7823 3.5714,7.391896 6.4934,15.065096 6.4934,17.051496 0,1.9864 1.6419,3.6116 3.6486,3.6116 2.0067,0 2.56,1.7613 1.2296,3.9139 -2.4939,4.0353 -14.9634,-9.1035 -15.1584,-15.9721 -0.054,-1.8949 -2.3393,-7.742196 -5.0787,-12.993896 -4.5593,-8.7405 -4.4116,-9.9042 1.7438,-13.7484 8.0091,-5.0018 8.7405,-9.4326 1.5569,-9.4326 -2.8424,0 -5.1679,-2.417 -5.1679,-5.3712 0,-3.1907 1.6189,-4.3706 3.9879,-2.9064 2.7961,1.728 3.325,-0.014 1.7697,-5.8259 -1.22,-4.5597 -2.2395,-9.5447 -2.2653,-11.0777 -0.028,-1.533 -1.6605,-1.7901 -3.6324,-0.5713 -1.972,1.2187 -2.5811,5.3802 -1.3535,9.2478 1.3832,4.3581 0.9036,6.211 -1.2612,4.8731 -2.0764,-1.2832 -2.798,0.4988 -1.7794,4.3941 1.3339,5.1009 -0.6458,7.071 -8.9344,8.8915 -9.771,2.1461 -12.3852,5.358 -10.915,13.4109 0.3018,1.6536 -1.7118,2.1391 -4.4748,1.0788 -2.7629,-1.0602 -5.9093,0.3804 -6.9918,3.2015 -1.0826,2.8211 -0.6138,4.2921 1.0417,3.269 6.1079,-3.7749 24.8241,5.9689 29.7454,15.485696 8.6078,16.6457 5.6054,19.3617 -6.4411,5.8267 -10.8191,-12.155996 -25.9147,-19.628796 -16.3356,-8.0868 2.7299,3.2894 2.8438,5.2219 0.3564,6.051 -2.01,0.67 1.026,6.3427 6.7466,12.6059 10.582,11.5859 13.6476,9.7125 6.3919,-3.9061 -3.6243,-6.8027 -3.4589,-7.0712 1.7226,-2.7969 3.1525,2.6006 5.7319,6.775 5.7319,9.2765 0,2.6435 2.7931,4.0103 6.6695,3.2638 6.6269,-1.2762 14.1873,16.42386 9.1618,21.44931 -1.1277,1.12775 -2.1594,-0.92105 -2.2926,-4.55287 -0.2315,-6.30994 -0.3737,-6.29724 -3.2031,0.28699 -1.6285,3.78975 -3.0699,4.861 -3.203,2.38058 -0.1333,-2.48042 -1.7748,-3.56264 -3.648,-2.40497 -1.9529,1.207 -2.5305,-0.17605 -1.354,-3.24184 1.1534,-3.0057 0.2378,-5.3468 -2.0915,-5.3468 -2.2788,0 -8.5721,-3.1536 -13.985,-7.008 -9.8418,-7.0079 -9.8418,-7.0079 -13.6216,7.7518 -5.7152,22.31757 -6.5575,24.05603 -10.9469,22.59287 -8.6071,-2.86904 -11.286,-12.24821 -6.2082,-21.73607 4.4518,-8.3183 4.2936,-9.638 -1.6789,-14.0052 -6.4086,-4.6861 -6.3874,-4.8215 0.7518,-4.8215 4.0401,0 8.4517,-1.7898 9.8037,-3.9773 3.9361,-6.3688 4.5426,-20.139296 0.8871,-20.139296 -1.8399,0 -2.3871,-1.5504 -1.216,-3.4452 1.1711,-1.8949 -0.2332,-3.4452 -3.1206,-3.4452 -2.8875,0 -7.0447,-3.4883 -9.2381,-7.7518 -3.2913,-6.3973 -3.1921,-6.9992 0.5678,-3.4452 6.0444,5.7135 8.9199,5.4358 8.9199,-0.8613 0,-2.8423 -2.4547,-5.2903 -5.4549,-5.4399 -3.5511,-0.177 -3.9535,-0.8779 -1.1531,-2.0081 3.3143,-1.3376 3.1165,-3.4286 -0.8613,-9.1077 -6.2831,-8.9704 -6.7036,-14.0977 -0.8566,-10.445 2.3686,1.4797 6.5159,3.0242 9.2163,3.4322 2.7004,0.4081 6.3139,3.2508 8.0299,6.3171 2.4818,4.4348 4.141,4.7278 8.1118,1.4324 3.7655,-3.1252 7.0824,-3.1902 13.5027,-0.2649 13.585,6.1897 9.8681,2.0304 -7.0407,-7.8789 -8.5534,-5.0126 -17.3199,-8.0211 -19.481,-6.6855 -2.4173,1.494 -2.9833,0.8979 -1.471,-1.5491 1.4566,-2.3567 0.2697,-3.9774 -2.913,-3.9774 -2.9541,0 -5.3711,-2.234 -5.3711,-4.9645 0,-7.5124 6.1703,-9.7572 7.7773,-2.8294 0.7745,3.3392 1.5097,-0.1302 1.6337,-7.7096 0.2253,-13.7809 0.2253,-13.7809 -7.1767,-0.895 -8.6282,15.0202 -9.7257,15.2732 -25.0829,5.7819 -6.382,-3.9443 -11.6037,-5.5345 -11.6037,-3.5337 0,2.0007 5.0387,6.3127 11.197,9.582 7.3348,3.894 9.3805,6.3377 5.9306,7.0847 -2.8966,0.6272 -7.3136,4.4182 -9.8156,8.4246 -3.9077,6.2573 -3.8181,7.0036 0.6362,5.2944 5.803,-2.2268 17.5689,8.8477 15.618,14.7003 -0.7173,2.1519 -5.9691,-0.1306 -12.2254,-5.3138 -9.3559,-7.7508 -10.3751,-10.0356 -6.9341,-15.5455 3.1051,-4.972 3.0622,-7.4309 -0.1864,-10.6794 -3.3302,-3.3302 -4.2203,-3.0268 -4.2203,1.4388 0,6.4447 -10.8123,5.6653 -20.1615,-1.4534 -3.1227,-2.3776 -4.5283,-2.9664 -3.1236,-1.3084 1.4047,1.6581 0.7622,5.1737 -1.4279,7.8126 -3.1619,3.8099 -2.4464,5.1994 3.4751,6.7479 4.1014,1.0726 7.4571,3.4111 7.4571,5.1968 0,1.7857 1.5503,2.2886 3.4452,1.1175 1.8948,-1.1711 3.4452,-0.4875 3.4452,1.5192 0,4.5547 -3.9223,4.6065 -15.4998,0.2047 -7.5832,-2.8832 -8.8818,-5.2504 -7.976,-14.5399 0.813,-8.339 -0.4132,-11.3977 -4.9352,-12.31 -4.4862,-0.905 -5.434,0.3056 -3.7254,4.758 1.8131,4.7251 0.9115,5.5294 -4.3186,3.8526 -25.4684,-8.1655 -32.3478,-11.5098 -30.9846,-15.0622 1.527,-3.9793 -5.1361,-8.0922 -12.9437,-7.9899 -2.3527,0.031 -1.8776,1.5263 1.1432,3.5994 4.2965,2.9487 4.0061,3.4538 -1.7226,2.9958 -14.6143,-1.1685 -21.2457,0.4276 -21.2457,5.1136 0,4.1379 1.1655,4.1075 7.7428,-0.2023 7.0861,-4.643 7.9288,-4.4855 9.9419,1.8572 2.3531,7.4131 21.369,18.7022 26.3339,15.6336 1.643,-1.0154 2.064,0.5598 0.9357,3.5005 -2.6352,6.8671 -4.6414,6.7357 -10.4177,-0.6823 -3.6998,-4.7516 -4.2965,-4.8733 -2.8154,-0.5742 1.1001,3.1934 -0.034,5.4549 -2.7269,5.4549 -5.1044,0 -14.7903,-8.9201 -10.4683,-9.6408 1.4959,-0.2494 -2.6411,-1.4122 -9.1936,-2.5839 -8.858,-1.5841 -12.5247,-4.339 -14.2987,-10.7435 -1.3119,-4.7371 -2.5402,-6.8901 -2.729,-4.7842 -0.403,4.4942 -17.5696,2.0439 -17.5696,-2.5078 0,-5.1951 -6.5741,-3.36 -13.7809,3.8468 -6.6906,6.6907 -6.8904,6.6991 -6.8904,0.287 0,-4.0153 3.7133,-8.0446 9.4744,-10.2807 8.5831,-3.3314 7.9353,-3.5993 -6.8826,-2.8469 -8.9961,0.4568 -16.8219,-0.5654 -17.3908,-2.2715 -0.5684,-1.7062 -4.4801,-1.2578 -8.6923,0.9964 -4.2117,2.2542 -9.1587,3.1712 -10.9926,2.0377 -1.8918,-1.1691 -2.4234,0.3135 -1.2289,3.4262 1.4549,3.7918 5.0944,5.016 11.7799,3.9624 6.2475,-0.9847 10.3308,0.186 11.5277,3.3049 1.2244,3.1912 -0.584,4.8296 -5.3308,4.8296 -5.3604,0 -6.7499,1.6608 -5.4734,6.5417 1.3905,5.3171 0.065,6.3611 -7.0769,5.577 -4.8333,-0.5305 -13.499,0.3866 -19.2574,2.0381 -5.7583,1.6515 -11.7447,1.7276 -13.3034,0.1692 -2.599,-2.5993 20.8543,-11.6542 27.3151,-10.5457 8.117,1.3927 7.4231,-1.2403 -2.5346,-9.6194 -6.0688,-5.1063 -13.5518,-9.6807 -16.6294,-10.1653 -3.0773,-0.4846 -9.8678,-1.9154 -15.0894,-3.1795 -5.9985,-1.452 -11.5663,-0.5788 -15.1214,2.3717 -3.0949,2.5685 -9.6749,4.3527 -14.6222,3.9649 -8.3899,-0.6575 -8.2996,-0.4794 1.3401,2.6441 7.0862,2.2962 12.6661,2.1344 17.7478,-0.5147 4.0767,-2.1251 9.5029,-3.0308 12.0582,-2.0128 2.6288,1.0472 1.293,1.9691 -3.0762,2.123 -4.2476,0.1495 -9.659,3.3727 -12.0259,7.1624 -5.1913,8.3129 -9.536,8.923 -9.536,1.3392 0,-6.1674 -21.7235,-4.1236 -30.1457,2.8362 -3.0811,2.5459 -4.3217,2.2131 -4.3593,-1.1696 -0.045,-3.9661 -0.5302,-3.9748 -3.0145,-0.054 -1.969,3.1075 -3.7205,3.4467 -5.2254,1.0118 -1.2451,-2.0145 -4.5853,-2.7718 -7.4224,-1.683 -4.3958,1.6867 -4.2517,2.7255 0.9716,7.0212 5.7387,4.7195 5.7452,4.9205 0.1,3.1459 -3.8656,-1.2155 -6.0292,-0.08 -6.0292,3.164 0,5.6975 -9.1212,6.9805 -10.9351,1.5381 -1.5038,-4.5107 -63.266,-8.7346 -65.8799,-4.5054 -1.7229,2.788 2.6349,4.1341 17.3849,5.3695 2.3686,0.1984 4.3066,3.0092 4.3066,6.2463 0,7.3358 -19.51,11.9997 -26.3725,6.3043 -3.7894,-3.1451 -4.5377,-2.3026 -3.8132,4.294 1.025,9.334 -9.6797,9.8685 -22.9889,1.1478 -7.3328,-4.8042 -22.6203,-5.5158 -22.6203,-1.0525 0,3.7231 12.0931,6.8209 17.9114,4.5882 2.8057,-1.0767 7.2876,0.7288 9.9598,4.0121 4.3561,5.3524 4.1566,5.706 -1.927,3.4199 -3.7322,-1.4023 -5.5612,-1.3254 -4.0646,0.1709 3.2181,3.2182 26.3518,3.7879 26.3528,0.649 0,-4.7972 20.4908,0.031 34.7626,8.1897 8.3568,4.7778 17.1317,7.9602 19.5003,7.0718 2.6026,-0.9761 4.3066,1.2875 4.3066,5.7209 0,5.406496 4.3706,9.361096 16.6166,15.034696 9.6952,4.4919 16.0138,9.5086 15.1687,12.0436 -0.9127,2.7379 -2.9175,3.1966 -5.4201,1.2401 -2.1842,-1.7077 -11.3878,-5.8789 -20.4525,-9.2693 -9.0644,-3.3905 -15.9049,-7.8718 -15.2011,-9.9586 1.58,-4.6833 -7.6893,-12.149396 -15.2678,-12.297496 -3.0838,-0.06 -7.6198,-2.5348 -10.08,-5.4989 -2.8389,-3.4208 -7.3973,-4.6552 -12.48,-3.3796 -4.404,1.1054 -8.0074,0.7621 -8.0074,-0.7628 0,-1.525 -2.9773,-2.7726 -6.6165,-2.7726 -5.3973,0 -5.9809,1.188 -3.1662,6.4472 4.843,9.0491 0.4699,11.874196 -6.6641,4.3054 -4.2776,-4.5382 -4.4963,-5.5345 -0.7793,-3.5491 2.8423,1.5182 3.9734,1.4466 2.5137,-0.1591 -3.8739,-4.2612 -17.0257,-4.7183 -24.4622,-0.8503 -4.3737,2.2751 -5.7342,2.2028 -4.2338,-0.225 1.2158,-1.9674 -0.535,-5.1756 -3.891,-7.1294 -4.1694,-2.4274 -4.5891,-3.5853 -1.3251,-3.6569 3.0387,-0.067 1.4987,-3.3824 -4.2335,-9.1145 -5.5433,-5.5433 -11.1225,-8.199 -14.5009,-6.9025 -3.9527,1.5167 -5.1227,0.4213 -4.1753,-3.9099 0.7242,-3.3094 3.5496,-5.4636 6.2796,-4.7871 2.7297,0.6764 11.1646,1.9694 18.7441,2.8733 7.5795,0.9038 19.706,3.8706 26.9479,6.5928 7.2415,2.7222 12.2753,3.5071 11.1856,1.7441 -2.9295,-4.7402 1.652,-14.4673 5.6501,-11.9962 5.4473,3.3665 -8.5779,-17.0258 -16.2204,-23.5846 -3.7905,-3.253 -5.0455,-5.9661 -2.7886,-6.0291 2.2566,-0.063 5.1265,1.5414 6.3775,3.5654 1.2509,2.0241 4.4054,2.8625 7.0093,1.8632 2.6042,-0.9994 9.8933,0.3383 16.198,2.9725 7.1681,2.9951 13.3203,3.6415 16.4206,1.7254 2.7266,-1.6852 8.3082,-2.2231 12.4035,-1.1952 5.676,1.4245 7.3204,0.3901 6.9191,-4.3524 -0.4665,-5.5108 2.6666,-6.2514 27.4429,-6.4866 19.2405,-0.1826 30.546,-1.9537 36.2251,-5.6748 17.6192,-11.5445004 74.3404,-18.5198004 104.6108,-12.8647004 8.7967,1.6434 27.126,3.8792 40.7318,4.9684 40.7226,3.2599004 51.9082,4.9815004 55.463,8.5365004 5.1922,5.1922 8.9224,4.0175 6.5848,-2.0737 -1.1514,-3.0009 -5.3663,-6.8998004 -9.3662,-8.6641004 -23.3627,-10.3056 46.399,0.1336 71.721,10.7324004 27.3151,11.433 27.3151,11.433 36.8069,0.063 12.3494,-14.79260045 19.8414,-12.3528004 18.8965,6.1535 -0.6791,13.3016 24.6872,25.3471 32.1793,15.2807 4.3225,-5.8077 10.5773,-3.8529 10.9524,3.4229 0.3008,5.8333 0.7896,6.2596 1.9753,1.7226 2.3587,-9.0261 17.6363,-7.4578 28.1676,2.8915 19.8322,19.4894 44.0734,31.9245 58.47,29.9935 11.8523,-1.5898 15.0918,-0.3232 27.2355,10.6477 7.5805,6.8487 14.8662,12.4522 16.1898,12.4522 1.324,0 8.8877,4.310796 16.8086,9.579596 7.9209,5.2689 18.8364,11.8239 24.2564,14.5667 5.4204,2.7429 16.1647,11.2224 23.8768,18.8434 7.7118,7.62106 12.852,11.5309 11.4223,8.68859 -1.5714,-3.12361 -0.6601,-2.8041 2.3031,0.80777 2.6966,3.28657 6.1594,4.83692 7.6949,3.44522 1.5359,-1.3917 1.8232,0.17054 0.6391,3.47158 -1.5335,4.27542 0.5698,7.40988 7.3115,10.89614 15.8087,8.175 52.8555,50.88925 48.1866,55.55819 -0.6815,0.68146 -4.2955,-3.32272 -8.0308,-8.89822 -6.4957,-9.69496 -15.0774,-14.79314 -9.8482,-5.85058 1.385,2.36859 -0.8493,1.35315 -4.9646,-2.25658 -9.4302,-8.27137 -9.8581,-1.8822 -0.9888,14.76357 4.9839,9.35344 6.6431,10.50497 8.4295,5.85023 1.2981,-3.38283 0.8223,-4.92939 -1.1425,-3.71502 -1.9086,1.17951 -2.4781,-0.23393 -1.3157,-3.26363 1.6792,-4.37564 3.2688,-3.7957 8.7719,3.20027 3.6964,4.69939 7.8751,8.18647 9.2855,7.74907 3.3977,-1.05369 24.601,23.15024 24.601,28.08267 0,2.11843 -1.5503,3.85169 -3.4452,3.85169 -1.8949,0 -3.0577,-1.70987 -2.5839,-3.79971 0.4737,-2.08983 -3.4032,-4.30973 -8.6155,-4.93307 -9.4771,-1.13338 -9.4771,-1.13338 -7.7249,18.4419 1.8566,20.74169 0.1895,20.92956 -3.2313,0.36378 -3.7453,-22.52601 -10.4276,-26.50755 -11.5287,-6.86933 -0.7721,13.76636 0.4685,18.35133 6.4808,23.95254 4.0895,3.80997 9.1702,9.92748 11.2903,13.59447 2.1202,3.66702 10.8205,16.54041 19.3336,28.60755 21.0793,29.87894 30.8075,52.23895 44.7707,102.90303 2.35,8.52692 5.8265,18.83889 7.7255,22.91552 1.8991,4.07659 2.699,9.50282 1.7774,12.05828 -0.9216,2.55543 0.4486,9.87425 3.0449,16.26397 2.5963,6.38975 4.7203,14.8066 4.7203,18.70415 0,7.54779 5.5169,26.61586 11.4327,39.51354 2.5422,5.54295 2.4685,8.93994 -0.2515,11.66122 -2.8231,2.82301 -2.4372,5.98073 1.4569,11.92423 4.7062,7.1826 7.7821,41.11839 8.3171,91.7599 0.3749,35.50671 -5.3793,67.6464 -13.17,73.55926 -8.8487,6.71578 -13.2076,5.82567 -6.6979,-1.36761 z M 263.089,420.27311 c -1.157,-3.01454 -1.1366,-6.44767 0.045,-7.62917 1.1818,-1.18154 2.1481,-0.33936 2.1481,1.87117 0,4.60705 12.4576,5.50277 15.1838,1.09172 0.9954,-1.61023 15.4274,-3.91667 32.0716,-5.12539 44.8575,-3.2576 58.9419,-5.39498 83.5012,-12.6715 12.2278,-3.62286 22.9765,-5.8423 23.8868,-4.93208 6.5662,6.56619 -29.2769,17.01603 -76.3331,22.25463 -29.6141,3.2968 -37.3931,4.32723 -67.1581,8.89601 -8.222,1.26202 -11.8071,0.25323 -13.3454,-3.75539 z M 647.702,278.39913 c 0,-2.6191 2.2527,-3.48323 5.666,-2.17346 3.3707,1.29348 7.3854,-0.17708 9.9101,-3.62985 3.3634,-4.59968 6.0944,-5.10065 13.1607,-2.41403 5.9558,2.26437 9.6381,2.22279 11.0892,-0.12506 1.2404,-2.00692 6.6514,-2.53155 12.6107,-1.22268 7.0543,1.54942 11.5207,0.77724 13.7777,-2.38223 2.5443,-3.56112 2.8778,-3.23848 1.4005,1.35435 -1.3216,4.10808 -0.1068,6.02914 3.8094,6.02914 4.5962,0 4.886,0.86251 1.4459,4.30288 -6.0918,6.09163 -72.8702,6.33087 -72.8702,0.2608 z m 101.5393,-62.70172 c 2.0354,-9.26669 1.4019,-10.7667 -4.5467,-10.7667 -3.8014,0 -7.6208,-2.71311 -8.4873,-6.02914 -0.9385,-3.59106 -1.857,-1.84954 -2.2714,4.30653 -0.6832,10.1489 -0.7425,10.18001 -3.2785,1.72261 -5.1334,-17.1177 -7.03,-31.33293 -3.9241,-29.41349 1.723,1.06485 3.7618,-0.79602 4.5308,-4.13527 1.6355,-7.1026 7.2825,3.62338 11.3141,21.49048 2.328,10.31727 2.338,10.32099 5.4824,2.07802 2.2566,-5.91483 1.7633,-9.82471 -1.7381,-13.78089 -2.6883,-3.0378 -5.492,-8.62395 -6.23,-12.41369 -0.8331,-4.2768 -3.6023,-6.50169 -7.3008,-5.8656 -3.2771,0.56367 -5.7504,-0.21154 -5.4961,-1.72261 1.2554,-7.45843 -0.7449,-14.80575 -4.0309,-14.80575 -2.1905,0 -2.7579,3.13433 -1.4036,7.75176 2.2738,7.75175 2.2738,7.75175 -3.5204,-0.15986 -3.1868,-4.35135 -4.8629,-10.33777 -3.7253,-13.30321 1.4043,-3.6595 0.5313,-4.8014 -2.7179,-3.5546 -2.6329,1.0103 -6.5263,0.098 -8.652,-2.0281 -5.2372,-5.237 -4.9134,-10.4389 0.4413,-7.0937 2.3686,1.4797 6.4767,3.0185 9.1295,3.4195 2.6525,0.4011 6.2872,2.7702 8.0767,5.2647 2.5515,3.5564 2.9095,3.4199 1.6588,-0.6322 -3.6922,-11.964 3.8487,-22.2295 11.3455,-15.4449 6.3613,5.757 7.2543,5.7893 13.126,0.4754 7.6308,-6.9058 10.9258,-7.2336 10.9258,-1.087 0,2.5381 -3.8759,6.3807 -8.6131,8.5392 -6.1872,2.819 -8.7588,6.8563 -9.1298,14.33386 -0.2825,5.72523 -0.6718,11.8125 -0.8613,13.52725 -0.1895,1.71472 4.055,8.05542 9.4323,14.09038 10.109,11.34564 11.178,47.92064 1.5741,53.85618 -2.2314,1.37908 -2.6287,-1.70494 -1.11,-8.61923 z m -56.0522,-37.65216 c 0.3359,-22.76641 -6.4802,-42.01895 -14.8764,-42.01895 -1.6769,0 -2.9932,-3.4883 -2.9251,-7.7518 0.1179,-7.38 0.5251,-7.2608 8.4903,2.4865 8.1632,9.9897 8.3254,10.0315 6.6766,1.7226 -1.6868,-8.5001 -1.6824,-8.5014 2.3718,-0.7639 2.234,4.2635 5.3752,7.7518 6.9805,7.7518 1.6053,0 2.9187,1.5017 2.9187,3.33708 0,1.83537 -2.3844,2.4221 -5.2987,1.30374 -4.089,-1.56906 -3.618,0.81549 2.0629,10.44382 7.7429,13.12347 12.4614,16.67426 8.568,6.44797 -1.7719,-4.65429 -1.3588,-5.09993 1.8115,-1.9542 5.829,5.78367 1.2034,16.92645 -4.9174,11.84647 -5.7058,-4.73528 -10.295,-0.8211 -5.6291,4.80102 3.8066,4.58653 0.7303,25.78809 -3.7416,25.78809 -1.5608,0 -2.6822,-10.54811 -2.492,-23.44024 z M 112.0563,149.94729 c -1.1235,-1.8178 -0.052,-6.6714 2.3806,-10.78579 3.5193,-5.9519 3.5431,-7.7995 0.1171,-9.0403 -2.3685,-0.8578 -4.3065,-4.1861 -4.3065,-7.3964 0,-3.2102 -2.1412,-8.8948 -4.7582,-12.6324 -4.0471,-5.7806 -4.0471,-7.4594 0,-11.238096 3.9159,-3.6558 4.7582,-3.4673 4.7582,1.0646 0,3.028796 1.2289,4.747596 2.7307,3.819396 1.5018,-0.9281 3.1045,3.2185 3.5613,9.2149 0.4569,5.9963 2.0489,12.1205 3.5376,13.6092 1.4887,1.4888 2.2787,-2.7306 1.7553,-9.3765 -1.0821,-13.7394 9.8406,-24.148596 13.9911,-13.3331 1.1813,3.0789 1.3364,6.4096 0.3445,7.4016 -0.9922,0.992 -1.8039,-0.2636 -1.8039,-2.7899 0,-2.5265 -0.996,-3.5976 -2.2136,-2.3801 -1.2175,1.2174 -0.3669,4.4385 1.8901,7.1579 2.9815,3.5925 3.0542,5.5928 0.2653,7.3158 -2.6232,1.6211 -1.8636,4.5523 2.4016,9.2652 4.8984,5.4126 5.1317,6.6745 1.086,5.873 -10.1097,-2.0028 -20.2549,3.8071 -18.9033,10.82523 1.3399,6.95856 -3.2344,9.25132 -6.8346,3.42576 z M 0,139.1368 c 0,-3.8548 1.8053,-10.3821 4.012,-14.505 6.0419,-11.2893 7.3431,-29.927796 2.0981,-30.052996 -2.5467,-0.061 -1.8576,-1.5782 1.6417,-3.6164 4.0647,-2.3674 5.9919,-7.6656 5.9144,-16.2601 -0.1137,-12.7483 -0.1137,-12.7483 -6.8904,-4.6149 -6.4247,7.712 -6.7758,7.7718 -6.7758,1.1541 0,-8.9943 27.8836,-33.6407 41.0347,-36.271 35.2812,-7.0562 70.8917,-6.6121 79.5481,0.9922 8.6131,7.566 8.6131,7.566 0,5.4987 -20.2803,-4.8676 -29.6702,-5.6769 -22.3939,-1.9302 5.4269,2.7945 4.0743,3.1276 -6.3682,1.5687 -8.9248,-1.3323 -12.5185,-0.7813 -10.9937,1.6856 1.2458,2.0157 5.9579,3.6649 10.4714,3.6649 4.5136,0 9.1802,1.5757 10.3705,3.5015 1.19,1.9257 3.5948,2.617 5.3439,1.5361 1.7488,-1.0809 5.9051,-0.2573 9.2363,1.8303 6.4612,4.0494 -8.0825,3.2653 -26.6733,-1.438 -8.182,-2.07 -8.2251,-2.0073 -0.8613,1.2524 13.3933,5.9287 10.8039,7.0137 -17.3498,7.2695 -5.2787,0.048 -8.7846,1.4032 -7.7903,3.0117 2.6187,4.2372 -8.7461,6.3085 -18.7865,3.424 -7.1833,-2.0637 -7.4692,-2.5678 -1.7226,-3.0363 6.4057,-0.5223 6.3451,-0.781 -0.8613,-3.6776 -4.2634,-1.7137 -7.7517,-3.7958 -7.7517,-4.6269 0,-2.375 15.0315,1.915 19.81,5.6537 2.4406,1.9096 4.3065,2.005 4.3065,0.2202 0,-4.2877 -22.9011,-14.3905 -26.7842,-11.8159 -1.7116,1.1347 -2.8261,10.9037 -2.4767,21.7087 0.4447,13.7518 -0.7556,20.1793 -4.0006,21.4245 -2.5498,0.9784 -4.6122,5.3159 -4.5832,9.638896 0.038,5.4271 0.9278,6.4808 2.8792,3.4045 1.8704,-2.9482 6.7705,-3.7606 14.4847,-2.4015 15.292,2.694 17.3657,5.1342 4.363,5.1342 -11.1284,0 -17.7401,5.7187 -26.4045,22.8378 C 9.2887,144.6536 0,149.18882 0,139.1368 Z m 190.3355,0.4124 c -14.7683,-23.6476 -13.1862,-46.007196 2.5664,-36.2716 1.9117,1.1816 3.6691,0.1188 3.9058,-2.3615 0.2377,-2.480496 1.6627,4.0021 3.1696,14.4057 1.507,10.4036 1.5459,19.7057 0.086,20.6713 -1.4594,0.9657 -3.2784,3.709 -4.0423,6.09629 -0.9219,2.88017 -2.835,2.02555 -5.6863,-2.54019 z m -93.4492,0.2546 c -2.6115,-1.654 -3.6809,-4.7339 -2.3766,-6.8441 1.3768,-2.2278 -1.1875,-5.19 -6.1145,-7.0632 -4.6673,-1.7744 -9.4613,-4.8045 -10.6534,-6.7335 -1.192,-1.929 -4.5067,-2.6096 -7.3658,-1.5124 -3.2675,1.2537 -4.8261,0.238 -4.1963,-2.7344 0.5743,-2.7108 -1.5711,-4.525 -5.027,-4.2507 -3.8879,0.3087 -6.0291,-1.9635 -6.0291,-6.3978 0,-4.798996 -1.6151,-6.256396 -5.3466,-4.824396 -3.2427,1.244196 -4.465,0.624896 -3.1062,-1.5738 1.5007,-2.428 -2.1385,-2.9186 -11.0182,-1.4852 -10.8873,1.7574 -12.1244,1.4269 -6.9184,-1.8483 3.4873,-2.1936 10.8514,-3.3264 16.3648,-2.5172 12.059,1.7699 12.3608,0.6717 2.2729,-8.2684 -5.8697,-5.2018 -6.2879,-6.4078 -1.7227,-4.9669 3.4739,1.0964 6.0516,0.1236 6.0819,-2.2956 0.034,-2.6651 1.2916,-2.3111 3.4452,0.9695 2.9088,4.4308 3.8421,4.4696 6.5439,0.2725 2.6945,-4.186 4.3782,-4.0913 11.6197,0.6534 5.1196,3.3546 11.7072,4.7136 16.6587,3.4367 7.135,-1.8401 7.617,-1.4126 3.7401,3.318 -3.6371,4.4378 -3.6371,5.7567 0,7.2159 3.6216,1.4533 3.6237,1.8363 0,2.0577 -2.9315,0.1795 -2.0658,2.8214 2.5474,7.772996 7.3955,7.9381 6.9035,12.8152 -0.7697,7.6321 -2.504,-1.6911 -1.5944,-0.3617 2.021,2.9543 7.4093,6.7962 2.3221,8.0105 -9.0589,2.1622 -5.9578,-3.0614 -6.6885,-2.9783 -3.5089,0.399 2.2091,2.3463 7.6353,6.0632 12.0583,8.2597 4.4229,2.1966 8.5372,7.4433 9.1429,11.6593 1.1679,8.1318 -1.5452,9.4608 -9.2942,4.5527 z M 497.688,114.5183 c -1.8143,-3.9878 -6.1456,-7.639 -9.6253,-8.1137 -5.8224,-0.7943 -5.8899,-0.3804 -0.8468,5.192 13.0464,14.4161 -20.6951,7.5407 -46.2273,-9.4196 -13.6435,-9.062896 -14.1616,-11.793196 -2.7872,-14.681196 5.2536,-1.3339 10.059,0.1402 14.1509,4.3415 5.924,6.0821 6.548,6.0959 14.2108,0.316 10.2055,-7.6981 7.9661,-13.2632 -8.7732,-21.8031 -15.231,-7.7701 -18.2046,-6.2372 -3.8817,2.001 9.4743,5.4494 9.4743,5.4494 -0.8614,3.3332 -5.6846,-1.1639 -13.4363,-2.3086 -17.2261,-2.5438 -3.7897,-0.2353 -7.9688,-2.0283 -9.2869,-3.9848 -1.3182,-1.9564 -3.3588,-2.5951 -4.5343,-1.4194 -1.1758,1.1758 1.2341,5.279 5.3549,9.1184 7.4927,6.9806 7.4927,6.9806 -5.3201,5.9639 -7.0472,-0.5591 -14.1426,-3.1569 -15.7677,-5.7728 -3.7653,-6.0611 2.3555,-8.4509 8.5266,-3.3293 3.6526,3.0314 4.2455,2.0509 2.9277,-4.8421 -1.5331,-8.0203 1.282,-10.4826 10.3481,-9.0511 5.5516,0.8766 2.0551,-3.1483 -9.6387,-11.0944 -9.4324,-6.4093 -10.9875,-8.7796 -6.8123,-10.3818 3.1135,-1.1948 8.4202,0.9337 12.5003,5.0137 3.8993,3.8995 16.6408,11.6069 28.3146,17.1277 11.6738,5.5208 23.6277,13.2233 26.5647,17.1166 6.5842,8.729 17.1669,5.9651 14.6095,-3.8155 -2.2001,-8.4132 5.2357,-8.8224 11.608,-0.6388 3.8869,4.9914 4.3627,5.0679 2.7658,0.4446 -1.5565,-4.5059 8.0749,-13.0197 10.3385,-9.1387 0.3031,0.5183 3.2881,5.3146 6.6351,10.6585 5.5513,8.8631 5.6165,10.4319 0.7438,17.8685 -4.9828,7.604896 -4.8991,8.118996 1.2462,7.656096 3.6232,-0.2728 5.8285,-1.724796 4.9005,-3.226296 -0.928,-1.5015 0.7297,-2.73 3.6839,-2.73 2.9541,0 5.3949,-1.938 5.4239,-4.3066 0.035,-2.869 1.1636,-2.5815 3.381,0.8613 2.3287,3.6161 1.8117,6.3047 -1.7219,8.953796 -2.7775,2.0822 -4.0717,4.7642 -2.8759,5.9599 1.1957,1.1957 -4.8752,1.8176 -13.4909,1.3819 -8.6158,-0.4356 -14.953,-1.9548 -14.0827,-3.376 0.8706,-1.4211 -0.1516,-2.5839 -2.2694,-2.5839 -2.1184,0 -2.731,-1.813796 -1.3608,-4.030696 1.6985,-2.7481 0.577,-3.2962 -3.5235,-1.7226 -3.3081,1.2695 -7.6787,2.3081 -9.7124,2.3081 -2.0689,0 -1.417,2.655196 1.4804,6.029096 7.9664,9.2762 10.0477,14.0028 6.9966,15.8886 -1.5328,0.9473 -4.2714,-1.5403 -6.0853,-5.5281 z"
     id="path328200"
     inkscape:connector-curvature="0" />
</svg>
